<?xml version="1.0" encoding="utf-8"?>
<!-- Generator: Adobe Illustrator 17.1.0, SVG Export Plug-In . SVG Version: 6.00 Build 0)  -->
<!DOCTYPE svg PUBLIC "-//W3C//DTD SVG 1.1//EN" "http://www.w3.org/Graphics/SVG/1.1/DTD/svg11.dtd">
<svg version="1.1" id="Layer_1" xmlns="http://www.w3.org/2000/svg" xmlns:xlink="http://www.w3.org/1999/xlink" x="0px" y="0px"
	 viewBox="10.7 -0.3 776.3 400" enable-background="new 10.7 -0.3 776.3 400" xml:space="preserve">
<path fill="#E0DCDC" d="M354.1,216.8c1.1,0.6,1.8,2,0.9,3.2c-0.7,0.9-2.6,1-3.8,1.2c-3.3,0.7-6.6,1.1-10,1.4
	c-8.8,0.8-17.6,0.8-26.3,0.3c-7.7-0.5-15.3-1.3-22.8-2.8c-1.3-0.3-2.6-0.6-3.9-0.9c-0.5-0.1-1.1-0.3-1.6-0.4
	c-0.5-0.1-1.2-0.3-1.5-0.8c-0.7-1.3,1.2-2,2-2.4c1.2-0.5,2.3-0.9,3.5-1.3c7-2.3,14.6-3.3,22-3.8c8.6-0.4,17.5,0.1,26,1.7
	C344,213.1,349.4,214.4,354.1,216.8z"/>
<g opacity="0.34">
	<line fill="none" stroke="#BC5757" stroke-width="5" stroke-miterlimit="10" x1="103.2" y1="253.4" x2="12.8" y2="398.3"/>
	<line fill="none" stroke="#BC5757" stroke-width="5" stroke-miterlimit="10" x1="785" y1="398.3" x2="688.5" y2="251.6"/>
	<line fill="none" stroke="#BC5757" stroke-width="5" stroke-miterlimit="10" x1="102.4" y1="254.9" x2="102.6" y2="0.9"/>
	<line fill="none" stroke="#BC5757" stroke-width="5" stroke-miterlimit="10" x1="103.2" y1="253.4" x2="693.2" y2="253.4"/>
	<line fill="none" stroke="#BC5757" stroke-width="5" stroke-miterlimit="10" x1="687.5" y1="253.3" x2="687.5" y2="-0.3"/>
</g>
<path fill="#B24646" d="M355.4,223.7c-1.2,0.9-3.3,1.2-4.6,1.7c-3,0.9-5.4,1.2-8.4,1.2c-7.9,0.9-15.8,1.2-23.7,1.2
	c-7.1,0-14.6-0.9-21.7-2.5c-2.5-0.4-5-1.2-7.4-2c-1.2-0.4-3-1.2-4.2-2H285c0,5.9,0,11.6,0,17.5c0,6.7,0,13.3,0,20.4
	c0,4.6,5.4,6.7,8.7,7.9c7.4,2.5,15.8,3.3,23.7,3.8c8.4,0.4,16.6,0.4,24.9-1.2c3-0.4,6.2-1.2,8.7-2.5c1.7-0.9,3.8-1.7,4.2-3.8
	c0-0.4,0-0.9,0-1.2c0-0.9,0-2,0-3c0-3.8,0-7.4,0.4-11.2c0-7.4,0.4-15.4,0.4-22.9c0-0.9,0-1.2,0-1.7L355.4,223.7z"/>
<path fill="#E0DCDC" d="M345.5,239.8c0,0.4-0.4,0.9-0.9,0.9h-0.4c-0.4,0-0.9-0.4-0.9-0.9v-9.1c0-0.4,0.4-0.9,0.9-0.9h0.4
	c0.4,0,0.9,0.4,0.9,0.9V239.8z"/>
<line fill="none" stroke="#DDDBDB" stroke-width="0.25" stroke-miterlimit="10" x1="344.3" y1="226.7" x2="344.3" y2="269.6"/>
<line fill="none" stroke="#DDDBDB" stroke-width="0.25" stroke-miterlimit="10" x1="292.8" y1="224.5" x2="293" y2="266.7"/>
<path fill="none" stroke="#DDDBDB" stroke-width="0.25" stroke-miterlimit="10" d="M354.9,228.3c-1.2,0.9-3.3,1.2-5,1.7
	c-3,0.9-5.9,1.2-8.7,1.7c-8.4,1.2-16.3,1.2-24.5,0.9c-7.1-0.4-14.5-1.7-21.6-3.3c-2.5-0.4-4.3-1.1-6.7-2c-1.2-0.5-3.5-2.3-3.5-2.3"
	/>
<line fill="none" stroke="#DDDBDB" stroke-width="0.25" stroke-miterlimit="10" x1="310.8" y1="227.5" x2="310.5" y2="270.3"/>
<path fill="#DF6750" stroke="#EDA69F" stroke-width="0.75" stroke-miterlimit="10" d="M357.1,237.9c0,0.9-0.4,1.2-0.9,1.2h-0.4
	c-0.4,0-0.9-0.4-0.9-1.2v-10.4c0-0.9,0.4-0.9,0.9-0.9h0.4c0.4,0,0.9,0.4,0.9,0.9V237.9z"/>
<path fill="#E0DCDC" d="M294.3,123.4c0-0.9-0.4-1.7-1.2-1.7c-0.9,0-1.2,1.2-1.2,1.7l1.7,169.4c0,0.9,0.4,1.7,1.2,1.7
	c0.9,0,1.2-1.2,1.2-1.7L294.3,123.4z"/>
<path fill="#E0DCDC" d="M352.5,222.1c0.4-1.7,1.2-3,2.5-2.5l0,0c0.9,0.4,1.2,1.7,0.9,3.3l-2,6.7c-0.4,1.7-1.2,3-2.5,2.5l0,0
	c-0.9-0.4-1.2-1.7-0.9-3.3L352.5,222.1z"/>
<path fill="#3D3D3D" d="M298,142.3c0,2-2,3.8-5,3.8h-0.4c-2.5,0-5-1.7-4.6-3.8v-5.4c0-1.7,10-1.7,10,0V142.3z"/>
<path fill="#3D3D3D" d="M358.8,220c-0.4,1.7-2.5,2-4.6,1.7l0,0c-2-0.4-3.8-2-3.3-3.3l0.9-3.8c0.4-1.2,8.4,0.9,7.9,2L358.8,220z"/>
<path fill="#DF6750" stroke="#EDA69F" stroke-width="0.75" stroke-miterlimit="10" d="M470.6,289.1"/>
<path fill="#B24646" d="M397.6,186.2c-1.6,0.7-3.6,0.5-5.3,0.5c-3.1,0-6.1-0.2-9.2-0.5c-8.2-0.9-16.3-2.2-24.3-4.4
	c-4.4-1.3-8.7-2.7-12.9-4.8c-2.3-1.1-4.9-2.2-6.7-3.9l-0.4-0.1c-1.2,6.3-2.3,12.6-3.5,19c-0.7,3.5-1.3,6.9-2,10.4
	c-0.3,1.5-0.5,3,0.3,4.4c1.3,2.3,3.8,3.8,6.2,5.1c3.3,1.8,7.1,3.3,10.8,4.4c8.4,2.6,17,4.4,25.8,5.1c3.3,0.3,6.8,0.4,10.2-0.2
	c1.7-0.3,4.3-0.7,5.1-2.5c0.2-0.4,0.3-1,0.4-1.4c0.3-1.2,0.5-2.5,0.7-3.8c0.9-4.1,1.7-8.2,2.5-12.2c1-5,2-9.9,3.1-14.9L397.6,186.2z
	"/>
<line fill="none" stroke="#DDDBDB" stroke-width="0.25" stroke-miterlimit="10" x1="390.4" y1="186.7" x2="383.8" y2="221.2"/>
<line fill="none" stroke="#DDDBDB" stroke-width="0.25" stroke-miterlimit="10" x1="345.5" y1="176.8" x2="338.8" y2="211.2"/>
<line fill="none" stroke="#DDDBDB" stroke-width="0.25" stroke-miterlimit="10" x1="365.8" y1="183.8" x2="358.3" y2="218.5"/>
<path fill="none" stroke="#DDDBDB" stroke-width="0.25" stroke-miterlimit="10" d="M397.7,190.1c-1.7,0.9-4.6,1.2-6.2,1.2
	c-3.3,0-6.7,0-10-0.4c-8.4-0.9-16.6-2.5-24.5-5c-4.2-1.2-8.4-3-12.5-5c-2-1.2-4.6-2-6.2-3.8h-0.5"/>
<path fill="#BCBBBB" d="M330.5,319.1c-0.4,0.4-1.2,0.4-2,0l0,0c-0.9-0.4-0.9-1.2-0.9-1.7l12.9-17.5c0.4-0.4,1.2-0.4,2,0l0,0
	c0.9,0.4,0.9,1.2,0.9,1.7L330.5,319.1z"/>
<path fill="#E0DCDC" d="M442.9,237.9v-7.1c0-0.9-0.4-3.3-1.2-3.3c-1.2,0-1.7,2-1.7,3c0,2.5,0,4.6-0.4,7.1c0,1.2-2.5,0.9-3,0.9
	c-1.2,0-2.5,0.4-3.8,0.4c-0.9,0-3,0.4-3,1.7c0,1.2,2.5,1.2,3.3,1.2l6.7-0.9c0.9,0,2-0.4,2.5-1.2
	C442.9,239.5,442.9,238.7,442.9,237.9z"/>
<path fill="#BCBBBB" d="M446.1,319.1c0.4,0.4,1.2,0.4,1.7,0l0,0c0.9-0.4,0.9-1.2,0.4-1.7l-12.5-16.6c-0.4-0.4-1.2-0.4-1.7,0l0,0
	c-0.9,0.4-0.9,1.2-0.4,1.7L446.1,319.1z"/>
<path fill="#3D3D3D" d="M445.7,227.9c0,1.2-1.7,2-4.2,2l0,0c-2,0-4.2-0.9-4.2-2v-3.3c0-1.2,8.4-1.2,8.4,0L445.7,227.9L445.7,227.9z"
	/>
<path fill="#E0DCDC" d="M516.5,154.7c0-2,3-2,3,0l-1.7,141.4c0,2-3,2-3,0L516.5,154.7z"/>
<path fill="#E0DCDC" d="M345.9,264.4c0,0.5-0.4,0.9-0.9,0.9h-0.4c-0.4,0-0.9-0.3-0.9-0.9v-6.6c0-0.5,0.4-0.9,0.9-0.9h0.4
	c0.4,0,0.9,0.3,0.9,0.9V264.4z"/>
<path fill="#3D3D3D" d="M445.7,320.4c0,1.7,1.2,3,3,3c1.7,0,3-1.2,3-3c0-1.7-1.2-3-3-3C447,317.4,445.7,318.7,445.7,320.4z"/>
<path fill="#BCBBBB" d="M532.2,320.6c0.4,0.9,1.2,0.9,2,0.4l0,0c0.9-0.4,0.9-1.2,0.4-2l-17.4-23.2c-0.4-0.9-1.2-0.9-2-0.4l0,0
	c-0.9,0.4-0.9,1.2-0.4,2L532.2,320.6z"/>
<path fill="#BCBBBB" d="M514.3,295.7c0.4-0.9,1.2-0.9,2-0.4l0,0c0.9,0.4,0.9,1.2,0.4,2l-17.9,22.9c-0.4,0.9-1.2,0.9-2,0.4l0,0
	c-0.9-0.4-0.9-1.2-0.4-2L514.3,295.7z"/>
<line fill="none" stroke="#B2AFAF" stroke-miterlimit="10" x1="521.1" y1="305.6" x2="516.6" y2="309.1"/>
<line fill="none" stroke="#B2AFAF" stroke-miterlimit="10" x1="514.8" y1="309" x2="510.4" y2="305.6"/>
<path fill="#B24646" d="M467.5,184.9c-1.4,1-3.5,1.4-5.1,1.7c-3.2,0.7-6.3,1.1-9.5,1.4c-8.1,0.7-16.3,0.9-24.4-0.4
	c-3.3-0.4-6.5-1.2-9.6-2.2c-1.7-0.5-3.8-1.2-5.3-2.2h-0.4c0.1,6.3,0.1,12.6,0.2,19c0.1,3.8,0.1,7.4,0.1,11.1c0,1.6-0.1,3.3,0.7,4.8
	c1.4,2.2,4.1,3.6,6.4,4.4c3.6,1.4,7.4,2.1,11.1,2.6c8.3,1.2,16.9,1.2,25.2-0.3c3-0.5,6-1.2,8.5-3c1.4-0.9,2.3-2.2,2.3-3.8
	c0.1-7,0.1-14.1,0.2-21.3c0.1-4,0.1-8,0.1-12h-0.5V184.9z"/>
<path fill="#BCBBBB" d="M277.2,319.4c-0.4,0.9-1.7,0.9-2,0.4l0,0c-0.9-0.4-0.9-1.7-0.4-2l18.4-24.5c0.4-0.9,1.7-0.9,2-0.4l0,0
	c0.9,0.4,0.9,1.7,0.4,2L277.2,319.4z"/>
<path fill="#3D3D3D" d="M531.4,321.6c0,1.7,1.2,3,3,3c1.7,0,3-1.2,3-3c0-1.7-1.2-3-3-3C532.6,318.7,531.4,319.9,531.4,321.6z"/>
<line fill="none" stroke="#DDDBDB" stroke-width="0.25" stroke-miterlimit="10" x1="459.8" y1="187.3" x2="460.3" y2="224.1"/>
<line fill="none" stroke="#DDDBDB" stroke-width="0.25" stroke-miterlimit="10" x1="419.1" y1="185.4" x2="419.1" y2="222.1"/>
<line fill="none" stroke="#DDDBDB" stroke-width="0.25" stroke-miterlimit="10" x1="438.1" y1="188.3" x2="438.2" y2="225.7"/>
<path fill="none" stroke="#DDDBDB" stroke-width="0.25" stroke-miterlimit="10" d="M467.1,188.9c-1.2,1.2-3.5,1.7-5.5,2.2
	c-3.3,0.9-6.6,1.1-10,1.5c-8.4,0.9-16.3,0.4-24.5-0.9c-3.3-0.4-6.2-1.2-9.1-2.5c-1.7-0.9-3.8-1.2-5-2h-0.4"/>
<path fill="#E0DCDC" d="M439.1,201.8c0,0.4-0.4,0.9-0.9,0.9h-0.4c-0.4,0-0.9-0.4-0.9-0.9v-9.1c0-0.4,0.4-0.9,0.9-0.9h0.4
	c0.4,0,0.9,0.4,0.9,0.9V201.8z"/>
<path fill="#E0DCDC" d="M419.9,198.4c0,0.4-0.4,0.9-0.9,0.9h-0.4c-0.4,0-0.9-0.4-0.9-0.9v-9.1c0-0.4,0.4-0.9,0.9-0.9h0.4
	c0.4,0,0.9,0.4,0.9,0.9V198.4z"/>
<path fill="#E0DCDC" d="M460.8,200.5c0,0.4-0.4,0.9-0.9,0.9h-0.4c-0.4,0-0.9-0.4-0.9-0.9v-9.1c0-0.4,0.4-0.9,0.9-0.9h0.4
	c0.4,0,0.9,0.4,0.9,0.9V200.5z"/>
<path fill="#E0DCDC" d="M413.4,195.5c0,0.4-0.4,0.9-0.9,0.9l0,0c-0.4,0-0.9-0.4-0.9-0.9v-9.2c0-0.4,0.4-0.9,0.9-0.9l0,0
	c0.4,0,0.9,0.4,0.9,0.9V195.5z"/>
<path fill="#E0DCDC" d="M468.6,195.9c0,0.4-0.4,1.2-0.9,1.2l0,0c-0.4,0-0.9-0.4-0.9-1.2v-8.7c0-0.4,0.4-0.9,0.9-0.9l0,0
	c0.4,0,0.9,0.4,0.9,0.9V195.9z"/>
<path fill="#C15249" d="M445.7,269.9c0,12.1-4.2,24.2-11.2,34.2c-7.1,9.6-17.1,16.6-28.7,20.4c-11.6,3.8-24.9,3.3-36.1-0.9
	c-11.2-4.2-20.7-11.6-27.5-21.7c-6.7-10.4-10.4-22.6-9.6-34.9c0.9-12.1,5.4-24.2,12.9-33.3c7.4-9.1,17.9-15.8,29.6-18.7
	c12.1-3,24.9-2,36.1,3c10.8,4.6,20.4,12.9,26.2,23.3C442.9,249.5,445.7,259.6,445.7,269.9z"/>
<path fill="#BCBBBB" d="M295.9,293.2c-0.4-0.9-1.7-0.9-2-0.4l0,0c-0.9,0.4-0.9,1.7-0.4,2l19.1,24.2c0.4,0.9,1.7,0.9,2,0.4l0,0
	c0.9-0.4,0.9-1.7,0.4-2L295.9,293.2z"/>
<line fill="none" stroke="#B2AFAF" stroke-miterlimit="10" x1="289.3" y1="303.2" x2="294.1" y2="306.4"/>
<line fill="none" stroke="#B2AFAF" stroke-miterlimit="10" x1="295.5" y1="306.5" x2="300.1" y2="303.2"/>
<path fill="#3D3D3D" d="M278,320.4c0,1.7-1.2,3.3-3.3,3.3c-2,0-3.3-1.2-3.3-3.3c0-1.7,1.2-3.3,3.3-3.3
	C276.7,317,278,318.7,278,320.4z"/>
<path fill="#3D3D3D" d="M318.3,320.4c0,1.7-1.2,3.3-3.3,3.3c-2.1,0-3.3-1.2-3.3-3.3c0-1.7,1.2-3.3,3.3-3.3
	C317.1,317,318.3,318.7,318.3,320.4z"/>
<g>
	<line fill="none" stroke="#B2AFAF" stroke-miterlimit="10" x1="488.1" y1="257.9" x2="484.9" y2="254.4"/>
	<path fill="#E0DCDC" d="M496.9,246.2c0.4-0.4,1.2-0.9,1.7-0.4l0,0c0.4,0.4,0.9,1.2,0.4,1.7L485.3,265c-0.4,0.4-1.2,0.9-1.7,0.4l0,0
		c-0.4-0.4-0.9-1.2-0.4-1.7L496.9,246.2z"/>
	<path fill="#E0DCDC" d="M482.7,264.9c0.4,0.4,1.2,0.9,1.7,0.4l0,0c0.4-0.4,0.9-1.2,0.4-1.7l-13.7-17.5c-0.4-0.4-1.2-0.9-1.7-0.4
		l0,0c-0.4,0.4-0.9,1.2-0.4,1.7L482.7,264.9z"/>
	<line fill="none" stroke="#B2AFAF" stroke-miterlimit="10" x1="483" y1="254.1" x2="480" y2="257.8"/>
</g>
<path fill="#E0DCDC" d="M296.3,314.1c0,0.9-0.9,1.2-1.2,1.2l0,0c-0.9,0-1.2-0.4-1.2-1.2l-0.4-20.7c0-0.9,0.9-1.2,1.2-1.2l0,0
	c0.9,0,1.2,0.4,1.2,1.2L296.3,314.1z"/>
<path fill="#E0DCDC" d="M484.9,236.2c0-0.9-0.4-1.7-1.2-1.7c-0.9,0-1.2,1.2-1.2,1.7l1.2,60.4c0,0.9,0.4,1.7,1.2,1.7
	c0.9,0,1.2-1.2,1.2-1.7L484.9,236.2z"/>
<path fill="#BCBBBB" d="M467.8,320.6c-0.4,0.9-1.2,0.9-2,0.4l0,0c-0.9-0.4-0.9-1.2-0.4-2l18.4-24.5c0.4-0.9,1.2-0.9,2-0.4l0,0
	c0.9,0.4,0.9,1.2,0.4,2L467.8,320.6z"/>
<path fill="#BCBBBB" d="M486.4,294.5c-0.4-0.9-1.7-0.9-2-0.4l0,0c-0.9,0.4-0.9,1.7-0.4,2l18.7,24.2c0.4,0.9,1.7,0.9,2,0.4l0,0
	c0.9-0.4,0.9-1.7,0.4-2L486.4,294.5z"/>
<line fill="none" stroke="#B2AFAF" stroke-miterlimit="10" x1="479.8" y1="304.1" x2="484.1" y2="308.5"/>
<line fill="none" stroke="#B2AFAF" stroke-miterlimit="10" x1="486.2" y1="308.3" x2="490.3" y2="304.1"/>
<path fill="#3D3D3D" d="M468.6,321.6c0,1.7-1.2,3.3-3.3,3.3c-1.7,0-3.3-1.2-3.3-3.3c0-1.7,1.2-3.3,3.3-3.3
	C466.9,318.2,468.6,319.9,468.6,321.6z"/>
<path fill="#3D3D3D" d="M508.6,321.6c0,1.7-1.2,3.3-3.3,3.3c-1.7,0-3.3-1.2-3.3-3.3c0-1.7,1.2-3.3,3.3-3.3
	C507.3,318.2,508.6,319.9,508.6,321.6z"/>
<path fill="#E0DCDC" d="M486.4,315.3c0,0.9-0.9,1.2-1.2,1.2l0,0c-0.9,0-1.2-0.4-1.2-1.2l-0.4-20.7c0-0.9,0.9-1.2,1.2-1.2l0,0
	c0.9,0,1.2,0.4,1.2,1.2L486.4,315.3z"/>
<path fill="#3D3D3D" d="M331.4,320.4c0,1.7-1.2,3.3-3.3,3.3c-1.7,0-3.3-1.2-3.3-3.3c0-1.7,1.2-3.3,3.3-3.3
	C330.1,317.4,331.4,318.7,331.4,320.4z"/>
<path fill="#3D3D3D" d="M493.2,321.6c0,1.7,1.2,3,3,3c1.7,0,3-1.2,3-3c0-1.7-1.2-3-3-3C494.3,318.7,493.2,319.9,493.2,321.6z"/>
<path fill="#CC9864" d="M307.6,128c-0.4-1.7-3.8-3.8-8.4-4.6c-1.2-1.2-3-2-5-2.5c-2,0-4.2,0.4-5.4,1.2c-4.6,0.4-8.4,2-8.7,3.8
	c-19.6,1.2-33.7,3-33.7,5c-0.4,2.5,20,6.2,46.6,7.9c26.6,2,49.2,0.4,49.2-2C342.6,134.7,328,131.4,307.6,128z"/>
<line fill="none" stroke="#EDA69F" stroke-width="0.75" stroke-miterlimit="10" x1="576.4" y1="149.3" x2="696.1" y2="149.3"/>
<g>
	<path fill="#474747" d="M701.1,163.1c0,1.6-1.2,2.7-2.7,2.7h-125c-1.6,0-2.7-1.2-2.7-2.7V104c0-1.6,1.2-2.7,2.7-2.7h124.9
		c1.6,0,2.7,1.2,2.7,2.7L701.1,163.1L701.1,163.1L701.1,163.1z"/>
	<path fill="#303030" d="M569.4,110v-7.2c0-1.6,1.2-2.5,2.7-2.5h8v6.4h-3.6v3.6L569.4,110L569.4,110z"/>
	<rect x="576.2" y="106.9" fill="#565656" width="120.1" height="54.3"/>
	<path fill="#303030" d="M703.5,110.4v-8c0-1.6-1.2-2.5-2.5-2.5h-8.8v6.8h4v4L703.5,110.4L703.5,110.4z"/>
	<path fill="#303030" d="M569.4,157.5v6.8c0,1.2,1.2,2.7,2.7,2.7h7.6v-6.4h-3.3v-2.7h-7.2L569.4,157.5L569.4,157.5z"/>
	<path fill="#303030" d="M703.5,156.7v7.6c0,1.2-1.2,2.7-2.5,2.7h-8.4v-6.4h3.6v-4L703.5,156.7L703.5,156.7z"/>
</g>
<rect x="576" y="146.4" fill="#C1AF8B" width="120.1" height="14"/>
<g>
	<rect x="582.8" y="150.4" fill="#B2A180" width="3.3" height="4.4"/>
	<line fill="none" x1="582.8" y1="152.8" x2="585.5" y2="152.8"/>
</g>
<g>
	<circle fill="#B2A180" cx="633.5" cy="153.6" r="3.6"/>
	<circle fill="#B2A180" cx="643.5" cy="153.6" r="3.6"/>
	<circle fill="#B2A180" cx="608.4" cy="153.6" r="3.6"/>
	<circle fill="#B2A180" cx="616.7" cy="153.6" r="2.7"/>
	<circle fill="#B2A180" cx="616.7" cy="153.6" r="1.2"/>
	<circle fill="#B2A180" cx="624.7" cy="153.6" r="2.7"/>
	<circle fill="#B2A180" cx="624.7" cy="153.6" r="1.2"/>
	<circle fill="#B2A180" cx="651.9" cy="153.6" r="2.7"/>
	<circle fill="#B2A180" cx="651.9" cy="153.6" r="1.2"/>
	<circle fill="#B2A180" cx="659.5" cy="153.6" r="2.7"/>
	<circle fill="#B2A180" cx="659.5" cy="153.6" r="1.2"/>
	<circle fill="#B2A180" cx="666.9" cy="153.6" r="2.7"/>
	<circle fill="#B2A180" cx="666.9" cy="153.6" r="1.2"/>
	<circle fill="#B2A180" cx="678.9" cy="153.3" r="3.6"/>
	<circle fill="#B2A180" cx="688.9" cy="153.6" r="3.6"/>
</g>
<line fill="none" stroke="#474747" stroke-width="4" stroke-miterlimit="10" x1="576" y1="145" x2="696.1" y2="145"/>
<g>
	<path fill="#474747" d="M701.7,281.8c0,1.6-1.2,2.7-2.7,2.7H572.8c-1.6,0-2.7-1.2-2.7-2.7V170.9c0-1.6,1.2-2.7,2.7-2.7h125.7
		c1.6,0,2.7,1.2,2.7,2.7L701.7,281.8L701.7,281.8z"/>
	<path fill="#303030" d="M568.5,176.8v-7.2c0-1.6,1.2-2.5,2.7-2.5h8v6h-3.6v3.6L568.5,176.8L568.5,176.8z"/>
	<rect x="575.5" y="173.2" fill="#565656" width="120.9" height="105.7"/>
	<path fill="#303030" d="M703.7,177.3v-8c0-1.6-1.2-2.5-2.5-2.5h-8.7v6.8h4.4v4h6.8V177.3L703.7,177.3z"/>
	<path fill="#303030" d="M568.5,276.2v6.8c0,1.2,1.2,2.7,2.7,2.7h7.6v-6.4h-3.3v-2.7L568.5,276.2L568.5,276.2z"/>
	<path fill="#303030" d="M703.7,275.4v7.6c0,1.2-1.2,2.7-2.5,2.7h-8.4v-6.4h3.6v-4L703.7,275.4L703.7,275.4z"/>
</g>
<path fill="#4C4C4C" d="M588.8,324.1c-0.9-0.9-2-0.9-2.7,0l-25.9,22.8c-0.9,0.9-0.9,2,0,2.7l0,0c0.9,0.9,2,0.9,2.7,0l25.9-22.8
	C589.1,326,589.6,324.8,588.8,324.1L588.8,324.1z"/>
<path fill="#4C4C4C" d="M597.6,340.3l8,13.2c0.4,0.9,1.6,1.2,2.7,0.9l0,0c0.9-0.4,1.2-1.6,0.9-2.7l-7.2-12L597.6,340.3z"/>
<polyline fill="#4C4C4C" points="598.4,164.8 599.9,268.6 595.6,268.6 596.7,164.8 598.7,164.8 "/>
<path fill="#C15249" d="M592.7,266.6h2c0.4,0,0.9-0.4,0.9-0.9V263l0,0c0,0,0,0.4,0.4,0.4c1.2,3.6,5.2,6,8.8,5.6c1.6,0,3.3-1.2,4-2.5
	c0.8-1.3,1.2-2.7,1.6-4c0-0.4,0-0.4,0.4-0.9c0-0.4,0-0.4,0.4-0.9c0.4-0.4,0.9-0.4,1.2,0c0,0,0.4,0,0.4,0.4c3.6,4,6,8.4,6.8,13.2
	c0.9,5.2,0,10-2,14.3c-0.9,2-2,4-2.7,6c-0.8,2-1.2,4.4-0.9,6.4c0,0.9,0.4,2,1.2,2.7c1.6,2.5,3.3,4.8,4.8,7.6c2.5,4,4,8.4,4.4,13.2
	c0.4,5.2-1.2,10-4.8,13.6c-2.7,3.3-6.4,4.8-10.4,6c-4,1.2-8.4,2-12.7,2.5c-3.3,0.4-6,0.4-9.1,0.4c-2,0-4-0.4-6-0.4
	c-4-0.4-8.4-1.2-12-2.5c-4-1.2-7.6-2.7-10.8-5.2c-4-2.7-6.8-6.8-7.6-11.6c-0.4-2.7,0-5.6,0.4-8.4c0.9-4.4,3.3-8,5.6-11.6
	c1.2-1.6,2.5-2.7,3.6-4.4c2-2,3.3-4.8,3.3-7.6c0-2-0.4-3.6-1.2-5.6c-1.2-3.6-2-7.2-2.5-11.2c-0.4-5.6,0.4-11.2,3.3-16.3
	c2-3.6,4.8-6.4,8.4-8.4h0.4c0.9-0.4,1.2,0,1.2,0.9c0,1.6-0.4,3.3-0.4,4.4c0,1.1,0.4,2.7,0.9,4c0.9,1.6,2,3.3,3.6,3.3
	c2.7,0.4,5.2-0.9,6.8-2.7l0.4-0.4l0.4-0.4l0,0c0,1.2,0,0,0,0v2.5c0,0.4,0.4,0.9,0.9,0.9l0,0 M610.7,316.9c1.2,0,2.7-0.9,3.6-2
	c0.9-1.2,0.4-2.7-0.4-4c-0.9-0.9-1.6-1.2-2.7-1.2c-2,0-3.6,1.6-3.6,3.6C607.1,314.9,608.7,316.9,610.7,316.9
	C612.7,316.9,608.7,316.9,610.7,316.9z M613.5,323.6c0,0.9,0.9,1.6,1.6,1.6c1.2,0,2.5-1.6,1.2-2.7c-0.4-0.4-1.2-0.9-1.6-0.4
	C613.9,322.4,613.5,323,613.5,323.6C613.5,324.4,613.5,323,613.5,323.6z M601.8,331.3c0,0.9,0.9,1.6,1.6,1.6c0.7,0,1.6-0.9,1.6-1.6
	c0-0.9-0.9-1.6-1.6-1.6S601.8,330.5,601.8,331.3C601.8,332.1,601.8,330.5,601.8,331.3z M606,320.9c0,0.9,0.9,1.6,1.6,1.6
	s1.6-0.9,1.6-1.6c0-0.9-0.9-1.6-1.6-1.6C606.8,319.3,606,319.6,606,320.9C605.5,321.7,606,319.6,606,320.9z M609.5,334
	c0,0.9,0.9,1.6,1.6,1.6c0.9,0,1.6-0.9,1.6-1.6c0-0.9-0.9-1.6-1.6-1.6C610.7,332.4,609.9,333.1,609.5,334
	C609.5,334.7,609.9,333.1,609.5,334z M601.1,335.9c-0.9,0-1.6,0.9-1.6,1.6c0,1.2,0.9,2,1.6,2c0.7,0,1.6-0.9,2-2
	C603.1,336.7,601.8,335.9,601.1,335.9C600.4,335.9,601.8,335.9,601.1,335.9z"/>
<path fill="#3D3D3D" d="M593.4,268.6c0,0,3.8,5.6,11.7,6c5.6,0.4,8.4-4,8.4-4s2.7,4.4,2,11.6c-0.4,4.8-5.6,8.8-5.6,15.6
	c-0.4,4,1.6,6.4,1.6,6.4s-8,2.7-12.7-3.6c-2-2.7-6.4-3.6-6.4-3.6L593.4,268.6z"/>
<path fill="#A8A8A8" stroke="#848484" stroke-width="0.25" stroke-miterlimit="10" d="M596,282.6l-13.6-0.7c-0.7,0-1.2-0.6-1.2-1.3
	l0.3-7.2c0-0.7,0.6-1.2,1.2-1.2l13.6,0.7c0.7,0,1.2,0.6,1.2,1.3l-0.3,7.2C597.2,282,596.6,282.6,596,282.6z"/>
<path fill="#7A6763" d="M583.7,265.4c0,0.4,0.7,0.9,0.7,0.9l10.8,0.4c0.4,0,0.9-0.4,0.9-0.9c0-0.9,0-2.7,0-2.5l4-98.9l-10.4-0.4
	l-5.2,89L583.7,265.4z"/>
<path fill="#A8A8A8" stroke="#848484" stroke-width="0.25" stroke-miterlimit="10" d="M595.1,298.5l-13.6-0.7
	c-0.7,0-1.2-0.6-1.2-1.3l0.3-7.2c0-0.7,0.6-1.2,1.2-1.2l13.6,0.7c0.7,0,1.2,0.6,1.2,1.3l-0.3,7.2C596.2,298,595.8,298.5,595.1,298.5
	z"/>
<path fill="#C15249" d="M589.6,163.7c0-0.2,0-0.4,0-0.6c0.1-3.3-1.3-5.8-3.7-7.9c-0.3-0.3-0.4-0.5-0.3-0.9c0.3-2,0.7-4,0.9-6
	c0.2-2.2,0.3-4.3,0.4-6.5c0.1-2.2,0.1-4.4,0.3-6.7c0.1-3.3,0-6.4-0.4-9.8c0.7,0,1.2,0.1,2,0.1c0.6,0,1.2,0.1,1.8,0
	c1.2-0.1,2.2-0.6,3.2-1.1c0.9-0.5,1.7-0.5,2.6-0.1c0.4,0.2,0.9,0,1.2-0.1c0.4-0.1,0.9-0.1,1.2,0c0.4,0.1,0.9,0.4,1.2,0.7
	c0.4,0.3,0.7,0.5,1.2,0.7c0.9,0.4,1.6,0.6,2.5,0.7c0.9,0.1,1.8,0.1,2.7,0.2c-0.3,1.6-0.6,3.2-0.7,4.8c-0.3,2.3-0.4,4.8-0.6,7.1
	c-0.2,2.3-0.3,4.7-0.5,7c-0.3,3.3,0,6.5,0.2,9.8c0,0.6-0.1,0.9-0.6,1.2c-1.2,1-2.3,2.2-3.2,3.6c-0.7,1.3-1.2,2.7-1.1,4.3
	C600.1,164.4,589.6,163.9,589.6,163.7z"/>
<g>
	<polyline fill="none" stroke="#EAEAEA" stroke-width="0.25" stroke-miterlimit="10" points="582.8,313.7 590.8,164 590.4,152.8 	
		"/>
	<polyline fill="none" stroke="#EAEAEA" stroke-width="0.25" stroke-miterlimit="10" points="585,313.8 591.9,164.4 590.6,144.6 	
		"/>
	<polyline fill="none" stroke="#EAEAEA" stroke-width="0.25" stroke-miterlimit="10" points="587.5,313.7 593.5,164.4 590.6,135.9 	
		"/>
	<polyline fill="none" stroke="#EAEAEA" stroke-width="0.25" stroke-miterlimit="10" points="589.6,313.7 595.6,164.8 601.3,136.4 	
		"/>
	<polyline fill="none" stroke="#EAEAEA" stroke-width="0.25" stroke-miterlimit="10" points="591.6,313.7 597.6,164.8 601.2,144.7 	
		"/>
	<polyline fill="none" stroke="#EAEAEA" stroke-width="0.25" stroke-miterlimit="10" points="593.2,314.2 598.7,164.8 600.3,153.2 	
		"/>
</g>
<circle fill="#A8A8A8" cx="590.4" cy="151.1" r="1.6"/>
<path fill="#A8A8A8" stroke="#848484" stroke-width="0.25" stroke-miterlimit="10" d="M599.2,313.2c0,0.9-0.9,1.6-1.6,1.6l-18.4-0.9
	c-0.9,0-1.6-0.9-1.6-1.6l0,0c0-0.9,0.9-1.6,1.6-1.6l18.4,0.9C598.7,311.6,599.2,312.4,599.2,313.2L599.2,313.2z"/>
<circle fill="#A8A8A8" cx="590.4" cy="143.1" r="1.6"/>
<circle fill="#A8A8A8" cx="600.4" cy="151.7" r="1.6"/>
<circle fill="#A8A8A8" cx="601.3" cy="143.4" r="1.6"/>
<path fill="#A8A8A8" d="M601.8,133.3c0.9,0,1.6,0.7,1.6,1.6c0,0.9-0.7,1.6-1.6,1.6c-0.9,0-1.6-0.7-1.6-1.6
	C600.3,134,600.9,133.3,601.8,133.3z"/>
<circle fill="#CEC2AF" cx="611" cy="313.2" r="3.8"/>
<path fill="#424242" d="M687.8,258.1c0,0.4,0.4-4.8,0.4-8v0.4c1.6,4,5.2,5.2,8.4,4.8c2,0,3.3-1.2,4.4-2.5c2-2.5,3.3-4.8,4-7.6
	c0.4-0.9,0.4-1.2,0.9-2c1.2-1.6,3.3-1.6,4.4-0.4c1.2,1.2,1.2,2.7,1.2,4.4c0,2-0.9,3.6-1.6,5.6c-1.2,2-2,4.4-3.3,6.4
	c-1.6,4.4-1.6,8.4,0.4,12.7c2,3.6,3.6,7.2,5.6,10.8c2,3.6,3.3,7.6,4,11.6c1.6,11.6-4.8,21.2-15.2,23.6c-4.4,1.2-8.8,1.6-13.2,1.6
	c-7.2,0-14.3-0.9-21.2-2c-5.2-1.2-10.4-3.3-14.8-6.4c-4-3.3-6-7.6-6.4-12.4c-0.4-5.6,1.2-10.4,3.3-15.6c1.6-3.6,3.6-7.2,5.6-10.8
	c2.5-3.6,3.6-7.6,3.3-11.6c0-2.7-0.9-5.2-1.6-7.6c-1.2-2.7-2-6-3.3-8.8c-1.6-4.8-2.5-9.1-2.5-14.3c0-2,0.4-4.4,1.6-6
	c0.9-1.6,2-2.5,3.6-2.7c1.2-0.4,2.5,0,2.7,1.2c0.4,0.9,0.9,2,0.9,2.7c0.4,4.4,2,8,4.8,11.2c0.9,1.2,1.6,2,3.3,2.5
	c2.5,1.2,4.8,0.9,7.2-0.9c0,0,0.4,0,0.4-0.4c0,7.2,0.4,20.4,0.4,20.4 M699.6,290.9c1.2,0,2.5-1.2,2.5-2.5s-1.2-2.5-2-2.5
	c-1.2,0-2.5,1.2-2.5,2C697.3,289.7,698.5,290.9,699.6,290.9z M702.9,306.8c1.2,0,2.5-1.2,2.5-2.5c0-1.3-1.2-2.5-2.5-2.5
	c-1.2,0-2.5,1.2-2.5,2.5C700.5,305.7,701.7,306.8,702.9,306.8z M708.9,296.1c0.9-0.9,1.2-1.2,0.9-2c-0.3-0.9-1.2-1.6-2-1.6
	s-1.6,0.9-2,1.6c0,0.9,0.4,1.6,1.2,2C707.7,296.4,708.4,296.1,708.9,296.1z"/>
<path fill="#666666" d="M674.5,254.2c0,0,0,2.5,0,3.6c0,2.5,2.5,4.8,6.8,4.8c3.6,0,6.3-1.7,6.3-3.7c0.1-2.9,0.1-4,0.1-4l0.9-135.6
	H677L674.5,241v11.2V254.2z"/>
<path fill="#DF6750" stroke="#EDA69F" stroke-miterlimit="10" d="M684.5,89.7"/>
<path fill="#666666" d="M687.3,281.8h-4.4c0.4-0.4,0.9-0.9,0.9-1.2v-2c0-0.9-0.9-1.2-2-1.2h-6.5c-1.2,0-2,0.4-2,1.2v2.5
	c0,0.9,1.2,1.2,2,1.2h4.8c-0.4,0-0.9,0.4-0.9,0.9v2c0,0.9,0.9,1.2,2,1.2h6c1.2,0,1.6-0.4,1.6-1.2v-2
	C688.9,282.1,688.5,281.8,687.3,281.8z"/>
<path fill="#BA9C74" d="M690,83.2c-2.5-0.9-5.2,0.4-6.4,2.7l0,0l-10.8,26.7c0,0.4,0,0.9,0.4,1.2l4,5.6h11.6c0,0-0.4-4.8,0.4-6
	c0.4-0.9,1.6-1.6,2.5-2.5c0.4-0.4,0.4-0.4,0.4-0.9l-3.3-16.3c2,0,4-1.2,4.8-3.6C694,87.1,692.7,83.9,690,83.2z"/>
<path fill="#DF6750" stroke="#EDA69F" stroke-miterlimit="10" d="M681.4,87"/>
<g>
	<line fill="none" stroke="#EAEAEA" stroke-width="0.25" stroke-miterlimit="10" x1="678.9" y1="108.5" x2="676.9" y2="296.9"/>
	<line fill="none" stroke="#EAEAEA" stroke-width="0.25" stroke-miterlimit="10" x1="681.4" y1="102.5" x2="680.1" y2="297.3"/>
	<line fill="none" stroke="#EAEAEA" stroke-width="0.25" stroke-miterlimit="10" x1="684.1" y1="95.8" x2="683.7" y2="297.7"/>
	<line fill="none" stroke="#EAEAEA" stroke-width="0.25" stroke-miterlimit="10" x1="686.5" y1="90.6" x2="686.1" y2="296.9"/>
</g>
<path fill="#DF6750" stroke="#EDA69F" stroke-miterlimit="10" d="M682.1,89.4"/>
<path fill="#A8A8A8" stroke="#848484" stroke-width="0.25" stroke-miterlimit="10" d="M690.5,300.5c0,2-0.9,3.6-1.2,3.6h-15.6
	c-0.9,0-1.2-1.6-1.2-3.6l0,0c0-2,0.9-3.6,1.2-3.6h15.6C690.1,296.9,690.5,298.5,690.5,300.5L690.5,300.5z"/>
<circle fill="#A8A8A8" cx="607.6" cy="320.7" r="1.7"/>
<circle fill="#A8A8A8" cx="615.4" cy="323.6" r="1.7"/>
<circle fill="#A8A8A8" cx="603.4" cy="331.2" r="1.8"/>
<circle fill="#A8A8A8" cx="611" cy="334.1" r="1.7"/>
<circle fill="#424242" stroke="#A8A8A8" stroke-width="0.75" stroke-miterlimit="10" cx="601.2" cy="337.7" r="1.7"/>
<circle fill="#A8A8A8" stroke="#A8A8A8" stroke-width="0.75" stroke-miterlimit="10" cx="700.2" cy="288.3" r="2.5"/>
<circle fill="#A8A8A8" stroke="#A8A8A8" stroke-width="0.75" stroke-miterlimit="10" cx="707.9" cy="294.3" r="2.2"/>
<circle fill="#A8A8A8" stroke="#A8A8A8" stroke-width="0.75" stroke-miterlimit="10" cx="702.8" cy="304.7" r="2.7"/>
<rect x="110.7" y="185.6" fill="#C1AF8B" width="108.1" height="20.7"/>
<path fill="#474747" d="M223.4,269.1c0,1.2-1.2,2.5-2.5,2.5H108c-1.2,0-2.5-1.2-2.5-2.5v-85.4c0-1.2,1.2-2.5,2.5-2.5h112.9
	c1.2,0,2.5,1.2,2.5,2.5V269.1L223.4,269.1z"/>
<path fill="#303030" d="M104.4,192.4v-10.6c0-1.2,1.2-2.5,2.5-2.5h10.3v6h-6.7v7C110.5,192.4,104.4,192.4,104.4,192.4z"/>
<path fill="#303030" d="M225.6,260.1v9.8c0,1.2-0.9,2.5-2.5,2.5h-10.6v-6h6.7v-6.2C219.1,260.1,225.6,260.1,225.6,260.1z"/>
<rect x="110.5" y="185.5" fill="#C1AF8B" width="108.6" height="80.8"/>
<rect x="111.8" y="202.3" fill="#565656" width="105.6" height="62.3"/>
<path fill="#303030" d="M104.4,260.4v9.8c0,1.2,1.2,2.5,2.5,2.5h10.3v-6h-6.7v-6.2C110.5,260.4,104.4,260.4,104.4,260.4z"/>
<circle fill="#A09C9C" cx="171.8" cy="197.7" r="4"/>
<path fill="none" stroke="#828282" stroke-width="0.25" stroke-miterlimit="10" d="M158.6,197.7"/>
<path fill="none" stroke="#828282" stroke-width="0.25" stroke-miterlimit="10" d="M155,197.7"/>
<path fill="none" stroke="#828282" stroke-width="0.25" stroke-miterlimit="10" d="M188.2,197.7"/>
<path fill="none" stroke="#828282" stroke-width="0.25" stroke-miterlimit="10" d="M184.6,197.7"/>
<circle fill="#565656" cx="116.4" cy="193.5" r="1.7"/>
<g>
	<circle fill="#444444" cx="165.1" cy="235.5" r="22.3"/>
</g>
<path fill="#303030" d="M225.3,192.4v-10.6c0-1.2-0.9-2.5-2.5-2.5h-10.3v6h6.2v7C218.8,192.4,225.3,192.4,225.3,192.4z"/>
<g>
	<rect x="209.3" y="190.9" fill="#9E9272" width="4.4" height="6.4"/>
</g>
<polygon fill="#E0DCDC" points="216.4,294.5 203.2,270.6 203.2,257 204,257 206.5,249.9 206.5,242.7 201.9,236.3 193.3,251 
	166,244.4 164.4,254.6 162.5,254.6 162.5,307.8 203.2,307.8 203.2,294.2 211.3,301.4 "/>
<path fill="#4C4C4C" d="M181,299.8c0.9-0.9,1.6-0.9,2.5,0l23.9,21.2c0.9,0.9,0.9,1.6,0,2.5l0,0c-0.9,0.9-1.6,0.9-2.5,0L181,302.3
	C180.6,301.8,180.6,300.6,181,299.8L181,299.8z"/>
<g>
	<circle fill="#9E9272" cx="177.9" cy="194.1" r="2.1"/>
</g>
<path fill="#4C4C4C" d="M181,298.2c0.9,0.4,0.9,1.6,0.9,2.5l-16.8,28c-0.4,0.9-1.6,1.2-2.5,0.9l0,0c-0.9-0.4-1.2-1.6-0.9-2.5
	l16.8-28C178.6,298.2,179.7,297.8,181,298.2L181,298.2z"/>
<path fill="#D8D6D6" d="M150.3,207.1c0-0.9,1-1.6,2.1-1.7l25.2-0.3c1.1-0.1,2.2,0.7,2.2,1.5l0,0c0,0.9-1,1.6-2.1,1.7l-25.2,0.3
	C150.9,208.7,150.4,207.9,150.3,207.1L150.3,207.1z"/>
<g>
	<circle fill="#D8D6D6" stroke="#4F4F4F" stroke-miterlimit="10" cx="170.2" cy="194" r="2.1"/>
	<line fill="none" stroke="#4F4F4F" stroke-miterlimit="10" x1="168.5" y1="195.3" x2="169.5" y2="194.4"/>
</g>
<path fill="none" stroke="#474747" stroke-miterlimit="10" d="M144.4,181.6c0,0,9-7.2,19.9-7.2c11,0,19.6,7.2,19.6,7.2H144.4z"/>
<path fill="#303030" d="M174.8,180.8c0,0.4-0.4,0.7-0.7,0.7H155c-0.4,0-0.7-0.3-0.7-0.7l0,0c0-0.4,0.4-0.7,0.7-0.7h19.1
	C174.4,180.1,174.8,180.4,174.8,180.8L174.8,180.8z"/>
<polyline fill="#4C4C4C" points="168.6,146.2 167,241.9 170.9,242.3 169.8,146.2 168.6,146.2 "/>
<path fill="#DFA244" d="M171.9,252.2c0.7,2,2,1.4,5.9,1.4c3.3-0.4,5.7-0.6,5.7-2.2c0-2.5-0.1-3-0.1-3l-9.5-102.9l-10.4,1.2
	C163.4,146.5,171.4,251,171.9,252.2z"/>
<path fill="#DFA244" d="M176.1,137.2l-3.8-13.1c1.6-0.4,2.7-1.2,3.6-3.3c0.9-2.5-0.9-4.8-3.3-5.6c-2.5-0.9-4.8,0.9-5.6,3.3l0,0
	l-7.3,22.2c-0.2,0.7-0.1,1.4,0.4,2c1.2,1.5,3.8,4.3,3.8,4.3l10-0.9c0-1.2-0.1-2.3-0.2-4.2c0.3-0.6,1.6-2.6,2.2-3.6
	C176.1,138.1,176.1,137.6,176.1,137.2z"/>
<path fill="#DF6750" stroke="#EDA69F" stroke-miterlimit="10" d="M169.8,117.4"/>
<path fill="#DF6750" stroke="#EDA69F" stroke-miterlimit="10" d="M166.6,115"/>
<g>
	<line fill="none" stroke="#C1C1C1" stroke-width="0.75" stroke-miterlimit="10" x1="584.9" y1="150.4" x2="586.5" y2="150.5"/>
	<path fill="#D8D6D6" d="M585,151.5c0,0.9-0.7,1.4-1.5,1.4l0,0c-0.9,0-1.4-0.7-1.4-1.5v-1.8c0-0.9,0.7-1.4,1.5-1.4l0,0
		c0.9,0,1.4,0.7,1.4,1.5V151.5z"/>
</g>
<path fill="#EDDABE" d="M186.5,271.7c0,0.9-0.4,1.2-1.2,1.2l-10.4,0.9c-0.9,0-1.2-0.4-1.2-1.2l0,0c0-0.9,0.4-1.2,1.2-1.2l10.4-0.9
	C185.6,270.5,186.5,270.9,186.5,271.7L186.5,271.7z"/>
<path fill="#EFCF94" d="M185.2,265.9c0,1.2-0.9,2.5-2,2.5l-8,0.9c-1.2,0-2-0.9-2-2l-0.4-3.6c0-1.2,0.9-2.5,1.6-2.5l8-0.9
	c1.2,0,2.5,0.9,2.5,2L185.2,265.9z"/>
<path fill="#EFCF94" d="M187,281.9c0,1.2-0.9,2.5-2,2.5l-8,0.9c-1.2,0-2-0.9-2-2l-0.4-3.6c0-1.2,0.9-2.5,1.6-2.5l8-0.9
	c1.2,0,2.5,0.9,2.5,2L187,281.9z"/>
<path fill="none" stroke="#EAEAEA" stroke-width="0.25" stroke-miterlimit="10" d="M178.5,294.4"/>
<path fill="none" stroke="#EAEAEA" stroke-width="0.25" stroke-miterlimit="10" d="M166,136.1"/>
<path fill="none" stroke="#EAEAEA" stroke-width="0.25" stroke-miterlimit="10" d="M186.4,293.8"/>
<path fill="none" stroke="#EAEAEA" stroke-width="0.25" stroke-miterlimit="10" d="M170.9,120.5"/>
<path fill="#B24646" d="M515.5,219.2c-1.4,0.7-3,1-4.4,1.3c-2.6,0.6-5.3,1.1-8,1.5c-7.8,1.2-15.5,2.2-23.3,2.8
	c-7.2,0.6-14.3,0.9-21.5,0.5c-2.5-0.1-4.8-0.2-7.2-0.4c-1.4-0.1-2.8-0.4-4.3-0.7l-0.4,0.1c0.7,6.5,1.4,13.1,2,19.5
	c0.1,1.3,0,2.8,1.2,3.7c1.7,1.2,4,1.5,6.1,2c7.4,1.1,15.2,0.9,22.7,0.4c8.5-0.4,17-1.3,25.3-2.7c3.2-0.5,6.3-1.2,9.3-2.2
	c1.5-0.4,3.8-1,4.8-2.5c0.3-0.4,0.4-0.7,0.3-1.1c-0.1-1.1-0.1-2.2-0.2-3.5c-0.3-4.1-0.5-8.2-0.9-12.3c-0.1-2.2-0.3-4.3-0.4-6.6
	L515.5,219.2z"/>
<path fill="none" stroke="#EAEAEA" stroke-width="0.25" stroke-miterlimit="10" d="M181,294.5"/>
<path fill="none" stroke="#EAEAEA" stroke-width="0.25" stroke-miterlimit="10" d="M167.4,132.4"/>
<path fill="none" stroke="#EAEAEA" stroke-width="0.25" stroke-miterlimit="10" d="M182.5,294.7"/>
<path fill="none" stroke="#EAEAEA" stroke-width="0.25" stroke-miterlimit="10" d="M168.6,128.2"/>
<path fill="#DF6750" stroke="#EDA69F" stroke-miterlimit="10" d="M167.8,117.4"/>
<path fill="#E0DCDC" d="M206.6,301.8c0.9,1.2,1.6,4.8,1.6,4.8s-4-0.4-5.2-0.9c-2-0.9-7.2-5.2-7.2-5.2c-1.2-0.9-1.6-2.7-0.4-4l0,0
	c0.9-1.2,2.7-1.6,4-0.4C199,296.1,205,299.8,206.6,301.8z"/>
<path fill="#DF6750" stroke="#EDA69F" stroke-miterlimit="10" d="M165,119"/>
<path fill="#3D3D3D" stroke="#DDDBDB" stroke-miterlimit="10" d="M439.1,269.9c0,10.8-3.8,21.7-10,30.4c-6.2,8.4-15.4,15-25.4,17.9
	c-10.4,3.3-22,3-32.1-0.9c-10-3.8-18.4-10.4-24.2-19.1c-6.2-9.1-9.1-20-8.4-30.8c0.4-10.8,4.6-21.3,11.2-29.6
	c6.6-8.4,16.3-14.2,26.2-16.6c10.8-2.5,22-1.7,32.1,2.5c9.6,4.2,17.9,11.2,23.3,20.4C436.5,252,439.1,261.2,439.1,269.9z"/>
<g>
	<path fill="#E0DCDC" d="M352.2,306.5c0.9-0.9,1.7-1.2,2-0.9l0,0c0.4,0.4,0.4,1.2-0.4,2.5l-3,3.3c-0.9,0.9-1.7,1.2-2,0.9l0,0
		c-0.4-0.4-0.4-1.2,0.4-2.5L352.2,306.5z"/>
	<path fill="#E0DCDC" d="M346.3,233.3c-0.9-0.9-1.2-1.7-0.9-2l0,0c0.4-0.4,1.2-0.4,2.5,0.4l3.8,3c0.9,0.9,1.2,1.7,0.9,2l0,0
		c-0.4,0.4-1.2,0.4-2.5-0.4L346.3,233.3z"/>
	<path fill="#E0DCDC" d="M445.2,267.8c1.2,0,2,0.4,2,1.2l0,0c0,0.9-0.9,1.2-2,1.7l-4.6,0.4c-1.2,0-2-0.4-2-1.2l0,0
		c0-0.9,0.9-1.2,2-1.7L445.2,267.8z"/>
	<path fill="#E0DCDC" d="M428.6,230.4c0.9-0.9,2-0.9,2.5-0.4l0,0c0.4,0.4,0,1.7-0.9,2.5l-3.3,3c-0.9,0.9-2,0.9-2.5,0.4l0,0
		c-0.4-0.4,0-1.7,0.9-2.5L428.6,230.4z"/>
	<path fill="#E0DCDC" d="M425.7,307.8c-0.9-0.9-1.2-1.7-0.9-2l0,0c0.4-0.4,1.2-0.4,2.5,0.4l3.8,3c0.9,0.9,1.2,1.7,0.9,2l0,0
		c-0.4,0.4-1.2,0.4-2.5-0.4L425.7,307.8z"/>
	<path fill="#E0DCDC" d="M387.9,214.1c0-1.2,0.4-2,1.2-2l0,0c0.9,0,1.2,0.9,1.2,2v4.6c0,1.2-0.4,2-1.2,2l0,0c-0.9,0-1.2-0.9-1.2-2
		V214.1z"/>
	<path fill="#E0DCDC" d="M388.7,321.9c0-1.2,0.4-2,1.2-2l0,0c0.9,0,1.2,0.9,1.2,2v4.6c0,1.2-0.4,2-1.2,2l0,0c-0.9,0-1.2-0.9-1.2-2
		V321.9z"/>
	<path fill="#E0DCDC" d="M337.1,271.2c1.2,0,2,0.4,2,1.2l0,0c0,0.9-0.9,1.2-2,1.2h-4.6c-1.2,0-2-0.4-2-1.2l0,0c0-0.9,0.9-1.2,2-1.2
		H337.1z"/>
</g>
<g>
	<g>
		<path fill="#E0DCDC" d="M512.7,214.1c0.4,0,1.2,0.4,1.2,0.9c0,0.9-0.9,1.2-1.2,1.2c-1.2,0.4-2.5,0.4-3.8,0.9
			c-3.3,0.9-6.2,1.2-9.6,1.7c-8.4,1.2-16.6,2-24.9,2.5c-7.1,0.4-13.7,0.4-20.7,0.4c-1.2,0-2.5,0-3.3-0.4c-0.4,0-1.2,0-1.2-0.4
			c-0.9-0.4,0-1.2,0.4-1.2c2-0.9,4.2-1.2,6.7-2c7.1-1.7,14.6-3,21.7-3.8c8.4-0.9,16.3-1.2,24.5-0.9
			C505.7,213.3,509.4,213.7,512.7,214.1z"/>
		<line fill="none" stroke="#DDDBDB" stroke-width="0.25" stroke-miterlimit="10" x1="508.6" y1="220.8" x2="511.1" y2="245.8"/>
		<line fill="none" stroke="#DDDBDB" stroke-width="0.25" stroke-miterlimit="10" x1="454.9" y1="225.4" x2="456.6" y2="249.5"/>
		<line fill="none" stroke="#DDDBDB" stroke-width="0.25" stroke-miterlimit="10" x1="480.2" y1="224.5" x2="482.3" y2="250"/>
		<path fill="none" stroke="#DDDBDB" stroke-width="0.25" stroke-miterlimit="10" d="M517.2,223c-1.2,0.9-2.1,1.1-3.7,1.5
			c-3,0.9-5.9,1.2-8.7,1.7c-7.9,1.2-16.3,2.5-24.5,3c-7.1,0.4-14.2,0.9-21.7,0.4c-3.8-0.4-7.4-0.4-11.2-1.2H447"/>
	</g>
</g>
<path fill="#E0DCDC" d="M514.3,315.7c0,0.4,0.9,1.2,1.2,1.2l0,0c0.9,0,1.2-0.4,1.2-1.2l0.4-20c0-0.4-0.9-1.2-1.2-1.2l0,0
	c-0.9,0-1.2,0.4-1.2,1.2L514.3,315.7z"/>
<g>
	<circle fill="#9E9272" cx="127.7" cy="193.6" r="3.3"/>
</g>
<g>
	<circle fill="#9E9272" cx="138.5" cy="193.5" r="3.3"/>
</g>
<g>
	<circle fill="#9E9272" cx="148" cy="193.8" r="2.1"/>
</g>
<g>
	<circle fill="#9E9272" cx="156" cy="193.8" r="2.1"/>
</g>
<g>
	<circle fill="#9E9272" cx="164.1" cy="193.8" r="2.1"/>
</g>
<g>
	<circle fill="#9E9272" cx="185.5" cy="193.8" r="2.1"/>
</g>
<g>
	<circle fill="#9E9272" cx="192.8" cy="193.8" r="2.1"/>
</g>
<g>
	<rect x="200.7" y="190.6" fill="#9E9272" width="4.4" height="6.4"/>
</g>
<path fill="#1E1E1E" d="M216.1,294.6c-0.2-1.6-0.7-3.3-1.2-4.8c-0.6-2-1.3-3.8-2.1-5.7c-0.7-1.7-1.6-3.5-2.6-5.1
	c-0.3-0.5-0.7-1-0.9-1.5c-0.5-0.9-1-1.7-1.5-2.6c-0.9-1.5-1.8-3-2.6-4.6c-0.9-1.6-1.4-3.3-1.7-5c-0.1-1.1-0.1-2.1-0.1-3.3
	c0.1-1,0.4-2,0.7-3c0.6-2,1.2-4.1,1.8-6.1c0.2-0.7,0.4-1.2,0.5-2c0.2-1.2,0.4-2.6,0.4-3.8c0.1-2-0.1-3.8-0.4-5.8
	c-0.2-1.2-0.7-2.3-1.2-3.5c-0.4-0.9-0.9-1.4-1.7-2c-0.6-0.4-1.2-0.7-2-0.9c-1.5-0.3-2.7,0.2-3.5,1.5c-0.2,0.4-0.4,0.9-0.4,1.3
	c-0.1,0.7-0.1,1.5-0.2,2.3c-0.1,1.6-0.5,3.2-1.3,4.6c-0.4,0.9-1,1.6-1.8,2.2c-0.3,0.2-0.6,0.4-0.9,0.6c-2,1-3.8,1.4-6.1,1.2
	c-1-0.1-3.8-1.1-4-1.3c0-0.1,0,0.4,0,0.5c0,0.2,0.1,1.8,0.1,2.1c0,0.1,0.2,0.3,0.4,0.4c0.4,0.2,2.1,1,3.3,1.2c2,0.4,3.8,0.3,4.8,0.1
	c1.4-0.3,2.7-0.9,3.9-1.7c1.7-1.2,3-2.7,3.6-4.6c0.4-1.1,0.7-2.2,0.9-3.3c0.1-0.9,0.2-2,0.2-2.8c0-0.3,0.1-0.6,0.1-0.9
	c0.2-0.6,0.7-0.7,1.2-0.4c0.1,0.1,0.3,0.3,0.4,0.4c0.9,1.2,1.4,2.5,1.7,3.8c0.2,0.9,0.4,1.7,0.4,2.7c0.1,0.9,0.1,1.7,0,2.6
	c-0.1,1.2-0.4,2.5-0.7,3.8c-0.3,1.4-0.7,3-1.2,4.3c-0.6,1.8-1.1,3.7-1.5,5.6c-0.1,0.4-0.2,0.9-0.2,1.3c-0.1,0.9-0.1,2-0.1,3
	c0.1,1.2,0.4,2.5,0.7,3.5c0.6,1.7,1.4,3.5,2.2,5.1c1.3,2.3,2.6,4.6,3.8,6.9c1.2,2.2,2.5,4.6,3.5,6.9c0.6,1.4,1.2,3,1.6,4.4
	c0.2,0.7,0.4,1.5,0.4,2.2c0,0.1,0,0.1,0,0.1c0,0.4,0,0.9-0.1,1.2c-0.4,1.5-2,2.5-3.5,2.1c-0.4-0.1-0.9-0.3-1.2-0.5
	c-1.8-1.2-3.7-2.5-5.4-3.7c-0.7-0.4-1.2-0.9-2-1.2c-1.5-0.9-3.2-1.4-4.8-1.7c-1.3-0.2-2.7-0.3-4.1-0.2c-0.2,0-0.4,0-0.7,0.1
	c-0.1,0.3-0.3,0.6-0.3,0.9c0,0.1,0,0.4,0,0.5l0.1,0.1v0.4c0-0.1,0-0.3-0.1-0.4c0,0.1,0,0.1,0,0.2c0,0.1,0,0.2,0.1,0.4l0.1,3.3
	c-0.1,0.1-0.3,0.2-0.6,0.2c-0.4,0-0.7,0.1-1.1,0.1c-0.2,0-0.4,0.1-0.6,0.3c-0.1,0.2-0.4,0.3-0.7,0.3c-0.2,0-0.4,0-0.6,0.1
	c-0.1,0-0.2,0.1-0.3,0.2c-0.2,0.2-0.5,0.2-0.7,0.1c-0.1-0.1-0.2-0.1-0.3-0.1c-0.3,0-0.5,0.1-0.9,0.1c-0.1,0-0.3,0.1-0.4,0.2
	c-0.1,0.2-0.5,0.2-0.7,0.1c-0.1-0.1-0.3-0.1-0.5-0.1s-0.4,0.1-0.7,0.1c-0.1,0-0.2,0.1-0.4,0.2c-0.1,0.2-0.5,0.2-0.7,0.1
	c-0.1-0.1-0.2-0.1-0.4-0.1c-0.2,0-0.5,0.1-0.7,0.1c-0.1,0-0.3,0.1-0.4,0.2c-0.1,0.2-0.5,0.2-0.7,0.1c-0.2-0.1-0.4-0.1-0.6-0.1
	s-0.4,0-0.6,0.1c-0.1,0-0.3,0.1-0.4,0.2c-0.1,0.2-0.5,0.2-0.7,0.1c-0.1-0.1-0.2-0.1-0.4-0.1c-0.3,0-0.5,0.1-0.9,0.1
	c-0.1,0-0.2,0.1-0.3,0.1c-0.2,0.3-0.5,0.3-0.9,0.1c-0.1-0.1-0.1-0.1-0.3-0.1c-0.1,0-0.5,0-0.7,0.1c-0.4,0-0.7-0.2-0.7-0.7
	c-0.1-1.2-0.2-2.5-0.4-3.6l-0.4-1.4c-0.7,0.1-1.2,0.1-2,0.1c-1-0.1-2-0.4-3-0.9c-0.9-0.6-1.7-1.4-2.2-2.2c-0.7-1.2-1.2-2.5-1.5-3.8
	c-0.2-0.9-0.4-1.7-0.4-2.6c-0.1-0.9-0.1-2,0-2.8c0.1-2,0.6-4,1.2-5.9c0.5-1.5,1-3.1,1.4-4.6c0.5-1.4,0.9-3,1-4.6
	c0.2-2,0.3-4,0.1-6.1c0-0.1,0-0.1,0-0.1c-0.1-1.5-0.4-3-0.7-4.6c-0.3-1.4-0.7-3-1.2-4.4c-0.2-0.5-0.4-1-0.5-1.5
	c-0.1-0.1-0.1-0.3-0.1-0.4c0-0.4,0-0.7,0.1-1.2c0.1-0.7,0.6-1,1.2-1.2c0.6-0.2,1.1-0.1,1.7,0c0.9,0.2,1.8,0.9,2.6,1.2
	c0.1,0-0.9-8.5-0.9-8.4c-0.6,1.4-1.4,2.2-2.8,2.6c-1,0.2-2,0.2-3.1,0.1c-1.6-0.2-3.2-0.9-4.4-2c-1-0.9-1.8-1.8-2.5-3
	c-0.4-0.9-1.3-3.6-1.4-4.1c-0.2-1.1-0.5-4.4-1-5.3c-0.1-0.3-1.3-1.2-3-0.9c-0.4,0.1-0.9,0.2-1.3,0.4c-0.9,0.5-1.4,1.1-2,2
	c-0.5,0.7-0.7,1.4-1,2.2c-0.9,2.5-1.1,4.8-0.9,7.4c0.1,2,0.4,4,0.9,6c0.1,0.7,0.4,1.4,0.5,2.2c0.1,0.7,0.4,1.3,0.6,2
	c1,2.7,2.1,5.3,3.3,8c0.7,1.8,1.5,3.7,2.2,5.6c0.3,0.9,0.6,1.8,0.7,2.7c0.2,1.7,0.3,3.3,0.1,5.1c-0.1,1.2-0.3,2.2-0.7,3.3
	c-0.5,1.7-1.1,3.5-1.6,5.1c-0.5,1.7-1.1,3.3-1.6,5.1c-0.4,1.2-0.7,2.5-1.1,3.6c-0.9,2.7-1.3,5.6-1.7,8.5c-0.2,2-0.3,3.8-0.2,5.6
	c0.1,1.8,0.2,3.5,0.7,5.3c0.2,0.9,0.4,1.5,0.7,2.2c1,2.2,2.6,4.3,4.4,5.9c2.2,2,4.8,3.5,7.5,4.6c3.1,1.2,6.3,1.7,9.6,2
	c1.3,0.1,2.6,0.1,3.8,0.1c1.3-0.1,2.6-0.1,3.9-0.1c1,0,2-0.1,3.2-0.1c0.1,0,0.3,0,0.4,0.1l3.3-0.2c0.7-0.1,1.4-0.1,2.2-0.1
	c2.6-0.2,5.3-0.4,7.9-0.9c1.3-0.2,2.6-0.5,3.9-0.9c2-0.5,4-1.2,5.9-2.2c1.8-0.9,3.5-2,5-3.3c3-2.7,4.7-6,5.4-9.9
	c0.2-1.2,0.3-2.5,0.3-3.6C216.5,298,216.3,296.3,216.1,294.6z"/>
<path fill="#303030" d="M141,181c0-0.4,0.2-0.9,0.5-0.9h6.2c0.3,0,0.6,0.4,0.6,0.7l0,0c0,0.4-0.2,0.9-0.5,0.9h-6.2
	C141.1,181.7,141,181.4,141,181L141,181z"/>
<path fill="#303030" d="M181.1,180.6c0-0.4,0.2-0.9,0.5-0.9h6.2c0.3,0,0.6,0.4,0.6,0.7l0,0c0,0.4-0.2,0.9-0.5,0.9h-6.2
	C181.3,181.4,181.2,181,181.1,180.6L181.1,180.6z"/>
<g>
	<circle fill="#A8A8A8" cx="194.2" cy="286.6" r="1.4"/>
</g>
<g>
	<circle fill="#A8A8A8" cx="200.8" cy="288.3" r="1.4"/>
</g>
<g>
	<circle fill="#A8A8A8" cx="206" cy="290.9" r="1.4"/>
</g>
<path fill="#A8A8A8" d="M188.3,293.8c0,0.9-0.4,1.2-1.2,1.2l-10.4,0.9c-0.9,0-1.2-0.4-1.2-1.2l0,0c0-0.9,0.4-1.2,1.2-1.2l10.4-0.9
	C187.5,292.7,188.3,293,188.3,293.8L188.3,293.8z"/>
<g>
	<line fill="none" stroke="#EAEAEA" stroke-width="0.25" stroke-miterlimit="10" x1="170.8" y1="121.2" x2="185.5" y2="292.7"/>
	<line fill="none" stroke="#EAEAEA" stroke-width="0.25" stroke-miterlimit="10" x1="168" y1="127.7" x2="182.8" y2="293"/>
	<line fill="none" stroke="#EAEAEA" stroke-width="0.25" stroke-miterlimit="10" x1="169.5" y1="124.8" x2="184.1" y2="292.9"/>
	<line fill="none" stroke="#EAEAEA" stroke-width="0.25" stroke-miterlimit="10" x1="166.9" y1="131.6" x2="180.9" y2="293.2"/>
	<line fill="none" stroke="#EAEAEA" stroke-width="0.25" stroke-miterlimit="10" x1="165.6" y1="136" x2="179.1" y2="293.4"/>
	<line fill="none" stroke="#EAEAEA" stroke-width="0.25" stroke-miterlimit="10" x1="164.4" y1="140.4" x2="177.6" y2="293.5"/>
</g>
<g>
	<circle fill="#DDD1C0" cx="170.1" cy="120.8" r="1.1"/>
</g>
<g>
	<circle fill="#DDD1C0" cx="168.8" cy="124" r="1.1"/>
</g>
<g>
	<circle fill="#DDD1C0" cx="167.7" cy="128" r="1.1"/>
</g>
<g>
	<circle fill="#DDD1C0" cx="166.4" cy="131.6" r="1.1"/>
</g>
<g>
	<circle fill="#DDD1C0" cx="163.8" cy="139.8" r="1.1"/>
</g>
<g>
	<circle fill="#DDD1C0" cx="165.1" cy="135.5" r="1.1"/>
</g>
<circle fill="#B7B7B7" cx="170.1" cy="120.8" r="0.6"/>
<circle fill="#B7B7B7" cx="168.8" cy="124.1" r="0.6"/>
<circle fill="#B7B7B7" cx="167.7" cy="128" r="0.6"/>
<circle fill="#B7B7B7" cx="166.4" cy="131.7" r="0.6"/>
<circle fill="#B7B7B7" cx="165" cy="135.6" r="0.6"/>
<circle fill="#B7B7B7" cx="163.8" cy="139.9" r="0.6"/>
<g>
	<path fill="#F9F9F9" d="M174.1,146.3c0,0.2-0.1,0.4-0.3,0.4l-10.2,0.9c-0.2,0-0.4-0.1-0.4-0.4l0,0c0-0.2,0.1-0.4,0.3-0.4l10.2-0.9
		C174,145.9,174.1,146,174.1,146.3L174.1,146.3z"/>
	<g>
		<path fill="#DBDBDB" d="M180.1,212.2c0,0.1-0.1,0.2-0.4,0.2l-10.9,0.9c-0.2,0-0.4-0.1-0.4-0.2l0,0c0-0.1,0.1-0.2,0.4-0.2l10.9-0.9
			C179.8,212,180.1,212.1,180.1,212.2L180.1,212.2z"/>
		<path fill="#C9C9C9" d="M168.7,212.9c-0.2,0-0.4,0.1-0.4,0.2c0,0.1,0.2,0.2,0.4,0.2l0.7-0.1c-0.1,0-0.2-0.1-0.3-0.2
			c0-0.1,0.1-0.2,0.4-0.2L168.7,212.9z"/>
		<path fill="#C9C9C9" d="M179.7,212c0.2,0,0.4,0.1,0.4,0.2c0,0.1-0.1,0.2-0.4,0.3l-0.7,0.1c0.1-0.1,0.2-0.1,0.2-0.2
			c0-0.1-0.2-0.2-0.4-0.2L179.7,212z"/>
	</g>
	<g>
		<path fill="#DBDBDB" d="M175,156.7c0,0.1-0.1,0.2-0.3,0.2l-10.2,0.9c-0.2,0-0.4-0.1-0.4-0.2l0,0c0-0.1,0.1-0.2,0.3-0.2l10.2-0.9
			C174.9,156.4,175,156.5,175,156.7L175,156.7z"/>
		<path fill="#C9C9C9" d="M164.4,157.3c-0.2,0-0.4,0.1-0.3,0.2c0.1,0.1,0.1,0.2,0.4,0.2l0.6-0.1c-0.1,0-0.2-0.1-0.2-0.2
			c0-0.1,0.1-0.2,0.3-0.2L164.4,157.3z"/>
		<path fill="#C9C9C9" d="M174.6,156.4c0.2,0,0.4,0.1,0.4,0.2s-0.1,0.2-0.3,0.3l-0.6,0.1c0.1-0.1,0.2-0.1,0.2-0.2
			c0-0.1-0.1-0.2-0.4-0.2L174.6,156.4z"/>
	</g>
	<g>
		<path fill="#DBDBDB" d="M175.6,163.4c0,0.1-0.1,0.2-0.4,0.2l-10.5,0.9c-0.2,0-0.4-0.1-0.4-0.2l0,0c0-0.1,0.1-0.2,0.4-0.2l10.5-0.9
			C175.5,163.2,175.6,163.3,175.6,163.4L175.6,163.4z"/>
		<path fill="#C9C9C9" d="M164.9,164c-0.2,0-0.4,0.1-0.4,0.2c0,0.1,0.1,0.2,0.4,0.2l0.7-0.1c-0.1,0-0.2-0.1-0.2-0.2s0.1-0.2,0.4-0.2
			L164.9,164z"/>
		<path fill="#C9C9C9" d="M175.4,163.2c0.2,0,0.4,0.1,0.4,0.2c0,0.1-0.1,0.2-0.4,0.3l-0.7,0.1c0.1-0.1,0.2-0.1,0.2-0.2
			c0-0.1-0.1-0.2-0.4-0.2L175.4,163.2z"/>
	</g>
	<g>
		<path fill="#DBDBDB" d="M176.1,169c0,0.1-0.1,0.2-0.4,0.3l-10.5,0.9c-0.2,0-0.4-0.1-0.4-0.2l0,0c0-0.1,0.1-0.2,0.4-0.3l10.5-0.9
			C175.9,168.8,176.1,168.9,176.1,169L176.1,169z"/>
		<path fill="#C9C9C9" d="M165.3,169.7c-0.2,0-0.4,0.1-0.4,0.3s0.1,0.2,0.4,0.2l0.7-0.1c-0.1,0-0.2-0.1-0.2-0.2
			c0-0.1,0.1-0.2,0.4-0.3L165.3,169.7z"/>
		<path fill="#C9C9C9" d="M175.7,168.9c0.2,0,0.4,0.1,0.4,0.2s-0.1,0.2-0.4,0.3l-0.7,0.1c0.1-0.1,0.2-0.1,0.2-0.2
			c0-0.1-0.1-0.2-0.4-0.2L175.7,168.9z"/>
	</g>
	<circle fill="#8C7A60" cx="170.8" cy="166.3" r="0.6"/>
	<g>
		<path fill="#DBDBDB" d="M176.6,174.1c0,0.1-0.1,0.2-0.4,0.2l-10.6,0.9c-0.2,0-0.4-0.1-0.4-0.2l0,0c0-0.1,0.1-0.2,0.4-0.2l10.6-0.9
			C176.3,173.9,176.6,174,176.6,174.1L176.6,174.1z"/>
		<path fill="#C9C9C9" d="M165.6,174.7c-0.2,0-0.4,0.1-0.4,0.2s0.1,0.2,0.4,0.2l0.7-0.1c-0.1,0-0.2-0.1-0.2-0.2s0.1-0.2,0.4-0.2
			L165.6,174.7z"/>
		<path fill="#C9C9C9" d="M176.1,173.9c0.2,0,0.4,0.1,0.4,0.2c0,0.1-0.1,0.2-0.4,0.3l-0.7,0.1c0.1-0.1,0.2-0.1,0.2-0.2
			c0-0.1-0.1-0.2-0.4-0.2L176.1,173.9z"/>
	</g>
	<g>
		<path fill="#DBDBDB" d="M177.3,179.8c0,0.1-0.1,0.2-0.4,0.2l-10.8,0.9c-0.2,0-0.4-0.1-0.4-0.2l0,0c0-0.1,0.1-0.2,0.4-0.2l10.8-0.9
			C177.1,179.6,177.3,179.7,177.3,179.8L177.3,179.8z"/>
		<path fill="#C9C9C9" d="M166.2,180.4c-0.2,0-0.4,0.1-0.4,0.2c0,0.1,0.2,0.2,0.4,0.2l0.7-0.1c-0.1,0-0.2-0.1-0.2-0.2
			s0.1-0.2,0.4-0.2L166.2,180.4z"/>
		<path fill="#C9C9C9" d="M176.9,179.6c0.2,0,0.4,0.1,0.4,0.2c0,0.1-0.1,0.2-0.4,0.3l-0.7,0.1c0.1-0.1,0.2-0.1,0.2-0.2
			c0-0.1-0.2-0.2-0.4-0.2L176.9,179.6z"/>
	</g>
	<g>
		<path fill="#DBDBDB" d="M177.6,185c0,0.1-0.1,0.2-0.4,0.2l-10.7,0.9c-0.2,0-0.4-0.1-0.4-0.2l0,0c0-0.1,0.1-0.2,0.4-0.2l10.7-0.9
			C177.5,184.7,177.6,184.8,177.6,185L177.6,185z"/>
		<path fill="#C9C9C9" d="M166.6,185.6c-0.2,0-0.4,0.1-0.4,0.2c0,0.1,0.2,0.2,0.4,0.2l0.7-0.1c-0.1,0-0.2-0.1-0.2-0.2
			c0-0.1,0.1-0.2,0.4-0.2L166.6,185.6z"/>
		<path fill="#C9C9C9" d="M177.3,184.7c0.2,0,0.4,0.1,0.4,0.2c0,0.1-0.1,0.2-0.4,0.3l-0.7,0.1c0.1-0.1,0.2-0.1,0.2-0.2
			c0-0.1-0.2-0.2-0.4-0.2L177.3,184.7z"/>
	</g>
	<circle fill="#8C7A60" cx="171.7" cy="177.6" r="0.6"/>
	<circle fill="#8C7A60" cx="173.5" cy="198.1" r="0.6"/>
	<g>
		<path fill="#DBDBDB" d="M178,190c0,0.1-0.1,0.2-0.4,0.2l-10.7,0.9c-0.2,0-0.4-0.1-0.4-0.2l0,0c0-0.1,0.1-0.2,0.4-0.2l10.7-0.9
			C177.9,189.8,178,189.9,178,190L178,190z"/>
		<path fill="#C9C9C9" d="M166.9,190.7c-0.2,0-0.4,0.1-0.4,0.2c0,0.1,0.2,0.2,0.4,0.2l0.7-0.1c-0.1,0-0.2-0.1-0.2-0.2
			c0-0.1,0.1-0.2,0.4-0.2L166.9,190.7z"/>
		<path fill="#C9C9C9" d="M177.6,189.8c0.2,0,0.4,0.1,0.4,0.2c0,0.1-0.1,0.2-0.4,0.3l-0.7,0.1c0.1-0.1,0.2-0.1,0.2-0.2
			c0-0.1-0.2-0.2-0.4-0.2L177.6,189.8z"/>
	</g>
	<g>
		<path fill="#DBDBDB" d="M178.6,195c0,0.1-0.1,0.2-0.4,0.2l-10.8,0.9c-0.2,0-0.4-0.1-0.4-0.2l0,0c0-0.1,0.1-0.2,0.4-0.2l10.8-0.9
			C178.4,194.8,178.6,194.9,178.6,195L178.6,195z"/>
		<path fill="#C9C9C9" d="M167.4,195.7c-0.2,0-0.4,0.1-0.4,0.2s0.2,0.2,0.4,0.2l0.7-0.1c-0.1,0-0.2-0.1-0.3-0.2
			c0-0.1,0.1-0.2,0.4-0.2L167.4,195.7z"/>
		<path fill="#C9C9C9" d="M178.2,194.8c0.2,0,0.4,0.1,0.4,0.2c0,0.1-0.1,0.2-0.4,0.3l-0.7,0.1c0.1-0.1,0.2-0.1,0.2-0.2
			c0-0.1-0.2-0.2-0.4-0.2L178.2,194.8z"/>
	</g>
	<g>
		<path fill="#DBDBDB" d="M179.1,200.4c0,0.1-0.1,0.2-0.4,0.2l-10.9,0.9c-0.2,0-0.4-0.1-0.4-0.2l0,0c0-0.1,0.1-0.2,0.4-0.2l10.9-0.9
			C178.9,200.2,179.1,200.3,179.1,200.4L179.1,200.4z"/>
		<path fill="#C9C9C9" d="M167.7,201.1c-0.2,0-0.4,0.1-0.4,0.2c0,0.1,0.2,0.2,0.4,0.2l0.7-0.1c-0.1,0-0.2-0.1-0.3-0.2
			c0-0.1,0.1-0.2,0.4-0.2L167.7,201.1z"/>
		<path fill="#C9C9C9" d="M178.7,200.2c0.2,0,0.4,0.1,0.4,0.2c0,0.1-0.1,0.2-0.4,0.3l-0.7,0.1c0.1-0.1,0.2-0.1,0.2-0.2
			c0-0.1-0.2-0.2-0.4-0.2L178.7,200.2z"/>
	</g>
	<g>
		<path fill="#DBDBDB" d="M179.4,204.5c0,0.1-0.1,0.2-0.4,0.2l-10.9,0.9c-0.2,0-0.4-0.1-0.4-0.2l0,0c0-0.1,0.1-0.2,0.4-0.2l10.9-0.9
			C179.2,204.2,179.4,204.3,179.4,204.5L179.4,204.5z"/>
		<path fill="#C9C9C9" d="M168.1,205.1c-0.2,0-0.4,0.1-0.4,0.2c0,0.1,0.2,0.2,0.4,0.2l0.7-0.1c-0.1,0-0.2-0.1-0.3-0.2
			c0-0.1,0.1-0.2,0.4-0.2L168.1,205.1z"/>
		<path fill="#C9C9C9" d="M179.1,204.2c0.2,0,0.4,0.1,0.4,0.2c0,0.1-0.1,0.2-0.4,0.3l-0.7,0.1c0.1-0.1,0.2-0.1,0.2-0.2
			c0-0.1-0.2-0.2-0.4-0.2L179.1,204.2z"/>
	</g>
	<g>
		<path fill="#DBDBDB" d="M179.7,208.8c0,0.1-0.1,0.2-0.4,0.2l-10.7,0.9c-0.2,0-0.4-0.1-0.4-0.2l0,0c0-0.1,0.1-0.2,0.4-0.2l10.7-0.9
			C179.5,208.5,179.7,208.5,179.7,208.8L179.7,208.8z"/>
		<path fill="#C9C9C9" d="M168.6,209.4c-0.2,0-0.4,0.1-0.4,0.2c0,0.1,0.2,0.2,0.4,0.2l0.7-0.1c-0.1,0-0.2-0.1-0.2-0.2
			c0-0.1,0.1-0.2,0.4-0.2L168.6,209.4z"/>
		<path fill="#C9C9C9" d="M179.3,208.5c0.2,0,0.4,0.1,0.4,0.2s-0.1,0.2-0.4,0.3l-0.7,0.1c0.1-0.1,0.2-0.1,0.2-0.2s-0.2-0.2-0.4-0.2
			L179.3,208.5z"/>
	</g>
	<g>
		<path fill="#DBDBDB" d="M180.5,216.2c0,0.1-0.1,0.2-0.4,0.2l-11.1,0.9c-0.2,0-0.4-0.1-0.4-0.2l0,0c0-0.1,0.1-0.2,0.4-0.2l11.1-0.9
			C180.2,215.9,180.5,216.1,180.5,216.2L180.5,216.2z"/>
		<path fill="#C9C9C9" d="M169,216.8c-0.2,0-0.4,0.1-0.4,0.2c0,0.1,0.2,0.2,0.4,0.2l0.7-0.1c-0.1,0-0.2-0.1-0.3-0.2
			c0-0.1,0.1-0.2,0.4-0.2L169,216.8z"/>
		<path fill="#C9C9C9" d="M180.2,215.9c0.2,0,0.4,0.1,0.4,0.2c0,0.1-0.1,0.2-0.4,0.3l-0.7,0.1c0.1-0.1,0.2-0.1,0.2-0.2
			c0-0.1-0.2-0.2-0.4-0.2L180.2,215.9z"/>
	</g>
	<g>
		<path fill="#DBDBDB" d="M180.8,220.6c0,0.1-0.1,0.2-0.4,0.2l-11.1,0.9c-0.2,0-0.4-0.1-0.4-0.2l0,0c0-0.1,0.1-0.2,0.4-0.2l11.1-0.9
			C180.7,220.4,180.8,220.5,180.8,220.6L180.8,220.6z"/>
		<path fill="#C9C9C9" d="M169.3,221.2c-0.2,0-0.4,0.1-0.4,0.2s0.2,0.2,0.4,0.2l0.7-0.1c-0.1,0-0.2-0.1-0.3-0.2
			c0-0.1,0.1-0.2,0.4-0.2L169.3,221.2z"/>
		<path fill="#C9C9C9" d="M180.4,220.4c0.2,0,0.4,0.1,0.4,0.2c0,0.1-0.1,0.2-0.4,0.3l-0.7,0.1c0.1-0.1,0.2-0.1,0.2-0.2
			c0-0.1-0.2-0.2-0.4-0.2L180.4,220.4z"/>
	</g>
	<g>
		<path fill="#DBDBDB" d="M181.4,224.7c0,0.1-0.1,0.2-0.4,0.2l-11.3,0.9c-0.2,0-0.4-0.1-0.4-0.2l0,0c0-0.1,0.1-0.2,0.4-0.2l11.3-0.9
			C181.2,224.6,181.4,224.7,181.4,224.7L181.4,224.7z"/>
		<path fill="#C9C9C9" d="M169.6,225.4c-0.2,0-0.4,0.1-0.4,0.2c0,0.1,0.2,0.2,0.4,0.2l0.7-0.1c-0.1,0-0.3-0.1-0.3-0.2
			c0-0.1,0.1-0.2,0.4-0.2L169.6,225.4z"/>
		<path fill="#C9C9C9" d="M181,224.6c0.2,0,0.4,0.1,0.4,0.2s-0.1,0.2-0.4,0.3l-0.7,0.1c0.1-0.1,0.2-0.1,0.2-0.2
			c0-0.1-0.2-0.2-0.4-0.2L181,224.6z"/>
	</g>
	<g>
		<path fill="#DBDBDB" d="M183.6,249.4c0,0.1-0.1,0.2-0.4,0.2l-11.6,0.9c-0.2,0-0.4-0.1-0.4-0.2l0,0c0-0.1,0.1-0.2,0.4-0.2l11.6-0.9
			C183.4,249.2,183.6,249.2,183.6,249.4L183.6,249.4z"/>
		<path fill="#C9C9C9" d="M171.6,250c-0.2,0-0.4,0.1-0.4,0.2c0,0.1,0.2,0.2,0.4,0.2l0.7-0.1c-0.1,0-0.3-0.1-0.3-0.2s0.1-0.2,0.4-0.2
			L171.6,250z"/>
		<path fill="#C9C9C9" d="M183.2,249.2c0.2,0,0.4,0.1,0.4,0.2c0,0.1-0.1,0.2-0.4,0.3l-0.7,0.1c0.1-0.1,0.2-0.1,0.2-0.2
			c0-0.1-0.2-0.2-0.4-0.2L183.2,249.2z"/>
	</g>
	<g>
		<path fill="#DBDBDB" d="M183.4,246.7c0,0.1-0.1,0.2-0.4,0.2l-11.6,0.9c-0.2,0-0.4-0.1-0.4-0.2l0,0c0-0.1,0.1-0.2,0.4-0.2l11.6-0.9
			C183.1,246.4,183.4,246.5,183.4,246.7L183.4,246.7z"/>
		<path fill="#C9C9C9" d="M171.4,247.3c-0.2,0-0.4,0.1-0.4,0.2c0,0.1,0.2,0.2,0.4,0.2l0.7-0.1c-0.1,0-0.3-0.1-0.3-0.2
			s0.1-0.2,0.4-0.2L171.4,247.3z"/>
		<path fill="#C9C9C9" d="M182.9,246.4c0.2,0,0.4,0.1,0.4,0.2c0,0.1-0.1,0.2-0.4,0.3l-0.7,0.1c0.1-0.1,0.2-0.1,0.2-0.2
			c0-0.1-0.2-0.2-0.4-0.2L182.9,246.4z"/>
	</g>
	<g>
		<path fill="#DBDBDB" d="M183.1,244.1c0,0.1-0.1,0.2-0.4,0.2l-11.6,0.9c-0.2,0-0.4-0.1-0.4-0.2l0,0c0-0.1,0.1-0.2,0.4-0.2l11.6-0.9
			C182.9,243.9,183.1,244,183.1,244.1L183.1,244.1z"/>
		<path fill="#C9C9C9" d="M171.1,244.7c-0.2,0-0.4,0.1-0.4,0.2c0,0.1,0.2,0.2,0.4,0.2l0.7-0.1c-0.1,0-0.3-0.1-0.3-0.2
			s0.1-0.2,0.4-0.2L171.1,244.7z"/>
		<path fill="#C9C9C9" d="M182.8,243.9c0.2,0,0.4,0.1,0.4,0.2c0,0.1-0.1,0.2-0.4,0.3l-0.7,0.1c0.1-0.1,0.2-0.1,0.2-0.2
			c0-0.1-0.2-0.2-0.4-0.2L182.8,243.9z"/>
	</g>
	<g>
		<path fill="#DBDBDB" d="M183,241c0,0.1-0.1,0.2-0.4,0.2l-11.6,0.9c-0.2,0-0.4-0.1-0.4-0.2l0,0c0-0.1,0.1-0.2,0.4-0.2l11.6-0.9
			C182.8,240.7,183,240.8,183,241L183,241z"/>
		<path fill="#C9C9C9" d="M170.9,241.6c-0.2,0-0.4,0.1-0.4,0.2c0,0.1,0.2,0.2,0.4,0.2l0.7-0.1c-0.1,0-0.3-0.1-0.3-0.2
			c0-0.1,0.1-0.2,0.4-0.2L170.9,241.6z"/>
		<path fill="#C9C9C9" d="M182.6,240.7c0.2,0,0.4,0.1,0.4,0.2c0,0.1-0.1,0.2-0.4,0.3l-0.7,0.1c0.1-0.1,0.2-0.1,0.2-0.2
			c0-0.1-0.2-0.2-0.4-0.2L182.6,240.7z"/>
	</g>
	<g>
		<path fill="#DBDBDB" d="M182.6,238c0,0.1-0.1,0.2-0.4,0.2l-11.6,0.9c-0.2,0-0.4-0.1-0.4-0.2l0,0c0-0.1,0.1-0.2,0.4-0.2l11.6-0.9
			C182.4,237.7,182.6,237.8,182.6,238L182.6,238z"/>
		<path fill="#C9C9C9" d="M170.6,238.6c-0.2,0-0.4,0.1-0.4,0.2c0,0.1,0.2,0.2,0.4,0.2l0.7-0.1c-0.1,0-0.3-0.1-0.3-0.2
			s0.1-0.2,0.4-0.2L170.6,238.6z"/>
		<path fill="#C9C9C9" d="M182.2,237.7c0.2,0,0.4,0.1,0.4,0.2c0,0.1-0.1,0.2-0.4,0.3l-0.7,0.1c0.1-0.1,0.2-0.1,0.2-0.2
			c0-0.1-0.2-0.2-0.4-0.2L182.2,237.7z"/>
	</g>
	<g>
		<path fill="#DBDBDB" d="M182.4,235.1c0,0.1-0.1,0.2-0.4,0.2l-11.6,0.9c-0.2,0-0.4-0.1-0.4-0.2l0,0c0-0.1,0.1-0.2,0.4-0.2l11.6-0.9
			C182.2,234.8,182.4,234.9,182.4,235.1L182.4,235.1z"/>
		<path fill="#C9C9C9" d="M170.3,235.8c-0.2,0-0.4,0.1-0.4,0.2s0.2,0.2,0.4,0.2l0.7-0.1c-0.1,0-0.3-0.1-0.3-0.2s0.1-0.2,0.4-0.2
			L170.3,235.8z"/>
		<path fill="#C9C9C9" d="M182,234.8c0.2,0,0.4,0.1,0.4,0.2s-0.1,0.2-0.4,0.3l-0.7,0.1c0.1-0.1,0.2-0.1,0.2-0.2
			c0-0.1-0.2-0.2-0.4-0.2L182,234.8z"/>
	</g>
	<g>
		<path fill="#DBDBDB" d="M182.2,232.2c0,0.1-0.1,0.2-0.4,0.2l-11.6,0.9c-0.2,0-0.4-0.1-0.4-0.2l0,0c0-0.1,0.1-0.2,0.4-0.2l11.6-0.9
			C182,232,182.2,232.1,182.2,232.2L182.2,232.2z"/>
		<path fill="#C9C9C9" d="M170.2,232.9c-0.2,0-0.4,0.1-0.4,0.2c0,0.1,0.2,0.2,0.4,0.2l0.7-0.1c-0.1,0-0.3-0.1-0.3-0.2
			c0-0.1,0.1-0.2,0.4-0.2L170.2,232.9z"/>
		<path fill="#C9C9C9" d="M181.8,232c0.2,0,0.4,0.1,0.4,0.2c0,0.1-0.1,0.2-0.4,0.3l-0.7,0.1c0.1-0.1,0.2-0.1,0.2-0.2
			c0-0.1-0.2-0.2-0.4-0.2L181.8,232z"/>
	</g>
	<g>
		<path fill="#DBDBDB" d="M181.8,229.1c0,0.1-0.1,0.2-0.4,0.2l-11.6,0.9c-0.2,0-0.4-0.1-0.4-0.2l0,0c0-0.1,0.1-0.2,0.4-0.2l11.6-0.9
			C181.6,228.8,181.8,228.9,181.8,229.1L181.8,229.1z"/>
		<path fill="#C9C9C9" d="M169.8,229.7c-0.2,0-0.4,0.1-0.4,0.2c0,0.1,0.2,0.2,0.4,0.2l0.7-0.1c-0.1,0-0.3-0.1-0.3-0.2
			s0.1-0.2,0.4-0.2L169.8,229.7z"/>
		<path fill="#C9C9C9" d="M181.4,228.8c0.2,0,0.4,0.1,0.4,0.2s-0.1,0.2-0.4,0.3l-0.7,0.1c0.1-0.1,0.2-0.1,0.2-0.2s-0.2-0.2-0.4-0.2
			L181.4,228.8z"/>
	</g>
	<circle fill="#8C7A60" cx="171.4" cy="211.3" r="0.6"/>
	<circle fill="#8C7A60" cx="177.9" cy="210.8" r="0.6"/>
	<circle fill="#8C7A60" cx="175.8" cy="223.3" r="0.6"/>
	<circle fill="#8C7A60" cx="176.5" cy="231.2" r="0.6"/>
	<circle fill="#8C7A60" cx="177" cy="237" r="0.6"/>
	<circle fill="#8C7A60" cx="177.5" cy="243.1" r="0.6"/>
</g>
<g>
	<line fill="none" stroke="#A0A0A0" stroke-miterlimit="10" x1="165" y1="118.7" x2="166.8" y2="119.3"/>
	<path fill="#B7B7B7" d="M165.3,118.8c-0.4,0.9-1.2,1.4-2,1.2c-0.7-0.2-0.9-1.2-0.6-2.1c0.4-0.9,1.2-1.4,2-1.2
		C165.4,117,165.6,117.9,165.3,118.8z"/>
</g>
<path fill="#686868" d="M182.6,203.1c0,0.9,0,1.6-0.4,1.6l-3.6,0.4c-0.4,0-0.9-0.9-0.9-1.6l0,0c0-0.9,0-1.6,0.4-1.6l3.6-0.4
	C181.8,201.5,182.6,202,182.6,203.1L182.6,203.1z"/>
<path fill="#686868" d="M172.7,203.7c0,0.9-0.4,1.6-1.2,1.5l-7.2,0.6c-0.9,0-1.2-0.4-1.2-1.2l0,0c0-0.9,0.4-1.6,1.2-1.5l7.2-0.6
	C171.9,202.5,172.7,203,172.7,203.7L172.7,203.7z"/>
<g>
	<line fill="none" stroke="#A0A0A0" stroke-miterlimit="10" x1="163.8" y1="122.3" x2="165.6" y2="122.9"/>
	<path fill="#B7B7B7" d="M164,122.4c-0.4,0.9-1.2,1.4-2,1.2c-0.7-0.2-0.9-1.2-0.6-2.1c0.4-0.9,1.2-1.4,2-1.2
		C164.1,120.6,164.4,121.5,164,122.4z"/>
</g>
<g>
	<line fill="none" stroke="#A0A0A0" stroke-miterlimit="10" x1="162.6" y1="126.2" x2="164.3" y2="126.7"/>
	<path fill="#B7B7B7" d="M162.8,126.3c-0.4,0.9-1.2,1.4-2,1.2c-0.8-0.2-0.9-1.2-0.5-2.1c0.4-0.9,1.2-1.4,2-1.2
		C162.9,124.4,163.2,125.3,162.8,126.3z"/>
</g>
<g>
	<line fill="none" stroke="#A0A0A0" stroke-miterlimit="10" x1="161.3" y1="130.1" x2="163" y2="130.7"/>
	<path fill="#B7B7B7" d="M161.5,130.2c-0.4,0.9-1.2,1.4-2,1.2c-0.7-0.3-0.9-1.2-0.5-2.1c0.4-0.9,1.2-1.4,2-1.2
		C161.6,128.3,161.8,129.3,161.5,130.2z"/>
</g>
<g>
	<line fill="none" stroke="#A0A0A0" stroke-miterlimit="10" x1="160" y1="134" x2="161.7" y2="134.7"/>
	<path fill="#B7B7B7" d="M160.2,134.1c-0.4,0.9-1.2,1.4-2,1.2c-0.7-0.3-0.9-1.2-0.5-2.1c0.4-0.9,1.2-1.4,2-1.2
		C160.4,132.3,160.6,133.2,160.2,134.1z"/>
</g>
<g>
	<line fill="none" stroke="#A0A0A0" stroke-miterlimit="10" x1="158.6" y1="138.2" x2="160.4" y2="138.7"/>
	<path fill="#B7B7B7" d="M158.8,138.2c-0.4,0.9-1.2,1.4-2,1.2c-0.7-0.3-0.9-1.2-0.5-2.1c0.4-0.9,1.2-1.4,2-1.2
		C159,136.4,159.1,137.3,158.8,138.2z"/>
</g>
<path fill="#F9F9F9" d="M589.3,164.2c0,0.2,0.1,0.4,0.4,0.4l10.2,0.4c0.2,0,0.4-0.1,0.4-0.4l0,0c0-0.2-0.1-0.4-0.4-0.4l-10.2-0.4
	C589.6,163.8,589.3,164,589.3,164.2L589.3,164.2z"/>
<g>
	<path fill="#BCADAC" d="M585.5,230.5c0,0.1,0.1,0.2,0.4,0.2l11.5,0.4c0.2,0,0.4-0.1,0.4-0.2l0,0c0-0.1-0.1-0.2-0.4-0.2l-11.5-0.4
		C585.6,230.2,585.5,230.4,585.5,230.5L585.5,230.5z"/>
	<path fill="#BCADAC" d="M597.4,230.7c0.2,0,0.4,0.1,0.4,0.2c0,0.1-0.2,0.2-0.4,0.2h-0.7c0.1,0,0.3-0.1,0.3-0.2s-0.1-0.2-0.4-0.2
		H597.4z"/>
	<path fill="#BCADAC" d="M585.9,230.3c-0.2,0-0.4,0.1-0.4,0.2c0,0.1,0.1,0.2,0.4,0.2h0.7c-0.1-0.1-0.2-0.1-0.2-0.2
		c0-0.1,0.2-0.2,0.4-0.2H585.9z"/>
</g>
<g>
	<path fill="#BCADAC" d="M588.8,174.7c0,0.1,0.1,0.2,0.4,0.2l10.2,0.4c0.2,0,0.4-0.1,0.4-0.2l0,0c0-0.1-0.1-0.2-0.4-0.2l-10.2-0.4
		C589,174.4,588.8,174.5,588.8,174.7L588.8,174.7z"/>
	<path fill="#BCADAC" d="M599.3,174.9c0.2,0,0.4,0.1,0.4,0.2c0,0.1-0.1,0.2-0.4,0.2h-0.6c0.1,0,0.2-0.1,0.2-0.2
		c0-0.1-0.1-0.2-0.4-0.2H599.3z"/>
	<path fill="#BCADAC" d="M589.1,174.4c-0.2,0-0.4,0.1-0.4,0.2c0,0.1,0.1,0.2,0.4,0.2h0.6c-0.1-0.1-0.2-0.1-0.2-0.2
		c0-0.1,0.1-0.2,0.4-0.2H589.1z"/>
</g>
<g>
	<path fill="#BCADAC" d="M585.5,226.9c0,0.1,0.1,0.2,0.4,0.2l11.7,0.4c0.2,0,0.4-0.1,0.4-0.2l0,0c0-0.1-0.1-0.2-0.4-0.2l-11.7-0.4
		C585.6,226.6,585.5,226.7,585.5,226.9L585.5,226.9z"/>
	<path fill="#BCADAC" d="M597.6,227c0.2,0,0.4,0.1,0.4,0.2c0,0.1-0.2,0.2-0.4,0.2h-0.7c0.1,0,0.3-0.1,0.3-0.2s-0.1-0.2-0.4-0.2
		H597.6z"/>
	<path fill="#BCADAC" d="M585.9,226.6c-0.2,0-0.4,0.1-0.4,0.2c0,0.1,0.1,0.2,0.4,0.2h0.7c-0.1-0.1-0.2-0.1-0.2-0.2
		c0-0.1,0.2-0.2,0.4-0.2H585.9z"/>
</g>
<g>
	<path fill="#BCADAC" d="M588.4,181.5c0,0.1,0.1,0.2,0.4,0.2l10.6,0.4c0.2,0,0.4-0.1,0.4-0.2l0,0c0-0.1-0.1-0.2-0.4-0.2l-10.6-0.4
		C588.5,181.2,588.4,181.2,588.4,181.5L588.4,181.5z"/>
	<path fill="#BCADAC" d="M599.2,181.6c0.2,0,0.4,0.1,0.4,0.2c0,0.1-0.1,0.2-0.4,0.2h-0.7c0.1,0,0.2-0.1,0.2-0.2s-0.1-0.2-0.4-0.2
		H599.2z"/>
	<path fill="#BCADAC" d="M588.7,181.2c-0.2,0-0.4,0.1-0.4,0.2s0.1,0.2,0.4,0.2h0.7c-0.1-0.1-0.2-0.1-0.2-0.2c0-0.1,0.1-0.2,0.4-0.2
		H588.7z"/>
</g>
<g>
	<path fill="#BCADAC" d="M588.1,186.8c0,0.1,0.1,0.2,0.4,0.2l10.5,0.4c0.2,0,0.4-0.1,0.4-0.2l0,0c0-0.1-0.1-0.2-0.4-0.2l-10.5-0.4
		C588.3,186.6,588.1,186.7,588.1,186.8L588.1,186.8z"/>
	<path fill="#BCADAC" d="M599,187c0.2,0,0.4,0.1,0.4,0.2c0,0.1-0.1,0.2-0.4,0.2h-0.7c0.1,0,0.2-0.1,0.2-0.2s-0.1-0.2-0.4-0.2H599z"
		/>
	<path fill="#BCADAC" d="M588.5,186.6c-0.2,0-0.4,0.1-0.4,0.2c0,0.1,0.1,0.2,0.4,0.2h0.7c-0.1-0.1-0.2-0.1-0.2-0.2
		c0-0.1,0.1-0.2,0.4-0.2H588.5z"/>
</g>
<circle fill="#383836" cx="593.8" cy="184.1" r="0.6"/>
<g>
	<path fill="#BCADAC" d="M587.7,192.2c0,0.1,0.1,0.2,0.4,0.2l10.6,0.4c0.2,0,0.4-0.1,0.4-0.2l0,0c0-0.1-0.1-0.2-0.4-0.2l-10.6-0.4
		C587.8,192,587.7,192.1,587.7,192.2L587.7,192.2z"/>
	<path fill="#BCADAC" d="M598.8,192.4c0.2,0,0.4,0.1,0.4,0.2c0,0.1-0.1,0.2-0.4,0.2h-0.7c0.1,0,0.2-0.1,0.2-0.2s-0.1-0.2-0.4-0.2
		H598.8z"/>
	<path fill="#BCADAC" d="M588.2,192c-0.2,0-0.4,0.1-0.4,0.2c0,0.1,0.1,0.2,0.4,0.2h0.7c-0.1-0.1-0.2-0.1-0.2-0.2
		c0-0.1,0.1-0.2,0.4-0.2H588.2z"/>
</g>
<g>
	<path fill="#BCADAC" d="M587.4,197.9c0,0.1,0.1,0.2,0.4,0.2l10.8,0.4c0.2,0,0.4-0.1,0.4-0.2l0,0c0-0.1-0.1-0.2-0.4-0.2l-10.8-0.4
		C587.5,197.6,587.4,197.8,587.4,197.9L587.4,197.9z"/>
	<path fill="#BCADAC" d="M598.5,198.1c0.2,0,0.4,0.1,0.4,0.2c0,0.1-0.1,0.2-0.4,0.2h-0.7c0.1,0,0.2-0.1,0.2-0.2
		c0-0.1-0.1-0.2-0.4-0.2H598.5z"/>
	<path fill="#BCADAC" d="M587.7,197.6c-0.2,0-0.4,0.1-0.4,0.2s0.1,0.2,0.4,0.2h0.7c-0.1-0.1-0.2-0.1-0.2-0.2c0-0.1,0.1-0.2,0.4-0.2
		H587.7z"/>
</g>
<g>
	<path fill="#BCADAC" d="M587.1,202.9c0,0.1,0.1,0.2,0.4,0.2l10.8,0.4c0.2,0,0.4-0.1,0.4-0.2l0,0c0-0.1-0.1-0.2-0.4-0.2l-10.8-0.4
		C587.3,202.7,587.1,202.8,587.1,202.9L587.1,202.9z"/>
	<path fill="#BCADAC" d="M598.2,203.1c0.2,0,0.4,0.1,0.4,0.2s-0.1,0.2-0.4,0.2h-0.7c0.1,0,0.2-0.1,0.2-0.2c0-0.1-0.1-0.2-0.4-0.2
		H598.2z"/>
	<path fill="#BCADAC" d="M587.5,202.7c-0.2,0-0.4,0.1-0.4,0.2s0.1,0.2,0.4,0.2h0.7c-0.1-0.1-0.2-0.1-0.2-0.2c0-0.1,0.1-0.2,0.4-0.2
		H587.5z"/>
</g>
<circle fill="#383836" cx="593.3" cy="195.5" r="0.6"/>
<circle fill="#383836" cx="592.5" cy="215.9" r="0.6"/>
<g>
	<path fill="#BCADAC" d="M586.8,208c0,0.1,0.1,0.2,0.4,0.2l11,0.4c0.2,0,0.4-0.1,0.4-0.2l0,0c0-0.1-0.1-0.2-0.4-0.2l-11-0.4
		C587,207.8,586.8,207.9,586.8,208L586.8,208z"/>
	<path fill="#BCADAC" d="M598.2,208.3c0.2,0,0.4,0.1,0.4,0.2c0,0.1-0.1,0.2-0.4,0.2h-0.7c0.1,0,0.2-0.1,0.2-0.2s-0.1-0.2-0.4-0.2
		H598.2z"/>
	<path fill="#BCADAC" d="M587.1,207.8c-0.2,0-0.4,0.1-0.4,0.2c0,0.1,0.1,0.2,0.4,0.2h0.7c-0.1-0.1-0.2-0.1-0.2-0.2
		c0-0.1,0.1-0.2,0.4-0.2H587.1z"/>
</g>
<g>
	<path fill="#BCADAC" d="M586.6,213c0,0.1,0.1,0.2,0.4,0.2l10.8,0.4c0.2,0,0.4-0.1,0.4-0.2l0,0c0-0.1-0.1-0.2-0.4-0.2l-10.8-0.4
		C586.7,212.8,586.6,212.9,586.6,213L586.6,213z"/>
	<path fill="#BCADAC" d="M597.9,213.2c0.2,0,0.4,0.1,0.4,0.2c0,0.1-0.1,0.2-0.4,0.2h-0.7c0.1,0,0.2-0.1,0.2-0.2s-0.1-0.2-0.4-0.2
		H597.9z"/>
	<path fill="#BCADAC" d="M587,212.9c-0.2,0-0.4,0.1-0.4,0.2c0,0.1,0.1,0.2,0.4,0.2h0.7c-0.1-0.1-0.2-0.1-0.2-0.2
		c0-0.1,0.1-0.2,0.4-0.2H587z"/>
</g>
<g>
	<path fill="#BCADAC" d="M586.3,218.4c0,0.1,0.1,0.2,0.4,0.2l11,0.4c0.2,0,0.4-0.1,0.4-0.2l0,0c0-0.1-0.1-0.2-0.4-0.2l-11-0.4
		C586.5,218.2,586.3,218.4,586.3,218.4L586.3,218.4z"/>
	<path fill="#BCADAC" d="M597.7,218.7c0.2,0,0.4,0.1,0.4,0.2c0,0.1-0.1,0.2-0.4,0.2H597c0.1,0,0.2-0.1,0.2-0.2s-0.1-0.2-0.4-0.2
		H597.7z"/>
	<path fill="#BCADAC" d="M586.6,218.3c-0.2,0-0.4,0.1-0.4,0.2c0,0.1,0.1,0.2,0.4,0.2h0.7c-0.1-0.1-0.2-0.1-0.2-0.2
		c0-0.1,0.1-0.2,0.4-0.2H586.6z"/>
</g>
<g>
	<path fill="#BCADAC" d="M586.1,222.6c0,0.1,0.1,0.2,0.4,0.2l11,0.4c0.2,0,0.4-0.1,0.4-0.2l0,0c0-0.1-0.1-0.2-0.4-0.2l-11-0.4
		C586.2,222.3,586.1,222.4,586.1,222.6L586.1,222.6z"/>
	<path fill="#BCADAC" d="M597.4,222.8c0.2,0,0.4,0.1,0.4,0.2c0,0.1-0.1,0.2-0.4,0.2h-0.7c0.1,0,0.2-0.1,0.2-0.2
		c0-0.1-0.1-0.2-0.4-0.2H597.4z"/>
	<path fill="#BCADAC" d="M586.5,222.3c-0.2,0-0.4,0.1-0.4,0.2c0,0.1,0.1,0.2,0.4,0.2h0.7c-0.1-0.1-0.2-0.1-0.2-0.2
		c0-0.1,0.1-0.2,0.4-0.2H586.5z"/>
</g>
<g>
	<path fill="#BCADAC" d="M585.2,234.3c0,0.1,0.1,0.2,0.4,0.2l11.5,0.4c0.2,0,0.4-0.1,0.4-0.2l0,0c0-0.1-0.1-0.2-0.4-0.2l-11.5-0.4
		C585.4,234.1,585.2,234.2,585.2,234.3L585.2,234.3z"/>
	<path fill="#BCADAC" d="M597.1,234.6c0.2,0,0.4,0.1,0.4,0.2c0,0.1-0.2,0.2-0.4,0.2h-0.7c0.1,0,0.3-0.1,0.3-0.2s-0.1-0.2-0.4-0.2
		H597.1z"/>
	<path fill="#BCADAC" d="M585.5,234.1c-0.2,0-0.4,0.1-0.4,0.2c0,0.1,0.1,0.2,0.4,0.2h0.7c-0.1-0.1-0.2-0.1-0.2-0.2
		c0-0.1,0.2-0.2,0.4-0.2H585.5z"/>
</g>
<g>
	<path fill="#BCADAC" d="M583.8,259.3c0,0.1,0.1,0.2,0.4,0.2l11.6,0.5c0.2,0,0.4-0.1,0.4-0.1l0,0c0-0.1-0.1-0.2-0.4-0.2l-11.6-0.5
		C584,259.1,583.8,259.1,583.8,259.3L583.8,259.3z"/>
	<path fill="#BCADAC" d="M595.9,259.6c0.2,0,0.4,0.1,0.4,0.2c0,0.1-0.2,0.1-0.4,0.1h-0.7c0.1,0,0.3-0.1,0.3-0.1
		c0-0.1-0.1-0.2-0.4-0.2H595.9z"/>
	<path fill="#BCADAC" d="M584.3,259.1c-0.2,0-0.4,0.1-0.4,0.1c0,0.1,0.1,0.2,0.4,0.2h0.7c-0.1,0-0.2-0.1-0.2-0.2s0.2-0.1,0.4-0.1
		H584.3z"/>
</g>
<circle fill="#383836" cx="595.8" cy="229.1" r="0.6"/>
<circle fill="#383836" cx="588.2" cy="228.9" r="0.6"/>
<circle fill="#383836" cx="591.6" cy="241.1" r="0.6"/>
<circle fill="#383836" cx="591.2" cy="248.6" r="0.6"/>
<circle fill="#383836" cx="591.1" cy="255.1" r="0.6"/>
<g>
	<circle fill="#A8A8A8" cx="590.6" cy="134.4" r="1.7"/>
</g>
<path fill="#5B5B5B" d="M583.6,227c0,0.9,0.4,1.6,0.9,1.6h3.6c0.4,0,0.9-0.9,0.9-1.6l0,0c0-0.9-0.4-1.6-0.9-1.6h-3.6
	C583.9,225.4,583.6,226.2,583.6,227L583.6,227z"/>
<path fill="#5B5B5B" d="M594,227.5c0,0.9,0.4,1.6,1.2,1.6l6.8,0.4c0.9,0,1.2-0.9,1.2-1.6l0,0c0-0.9-0.4-1.6-1.2-1.6l-6.8-0.4
	C594.8,225.9,594,226.6,594,227.5L594,227.5z"/>
<g>
	<path fill="#BCADAC" d="M584,256.4c0,0.1,0.1,0.2,0.4,0.2l11.6,0.5c0.2,0,0.4-0.1,0.4-0.1l0,0c0-0.1-0.1-0.2-0.4-0.2l-11.6-0.5
		C584.3,256.2,584,256.2,584,256.4L584,256.4z"/>
	<path fill="#BCADAC" d="M596.1,256.7c0.2,0,0.4,0.1,0.4,0.2c0,0.1-0.2,0.1-0.4,0.1h-0.7c0.1,0,0.3-0.1,0.3-0.1
		c0-0.1-0.1-0.2-0.4-0.2H596.1z"/>
	<path fill="#BCADAC" d="M584.4,256.2c-0.2,0-0.4,0.1-0.4,0.1c0,0.1,0.1,0.2,0.4,0.2h0.7c-0.1,0-0.2-0.1-0.2-0.2
		c0-0.1,0.2-0.1,0.4-0.1H584.4z"/>
</g>
<g>
	<path fill="#BCADAC" d="M584.2,252.8c0,0.1,0.1,0.2,0.4,0.2l11.6,0.5c0.2,0,0.4-0.1,0.4-0.1l0,0c0-0.1-0.1-0.2-0.4-0.2l-11.6-0.5
		C584.4,252.8,584.2,252.8,584.2,252.8L584.2,252.8z"/>
	<path fill="#BCADAC" d="M596.1,253.3c0.2,0,0.4,0.1,0.4,0.2c0,0.1-0.2,0.1-0.4,0.1h-0.7c0.1,0,0.3-0.1,0.3-0.1
		c0-0.1-0.1-0.2-0.4-0.2H596.1z"/>
	<path fill="#BCADAC" d="M584.5,252.8c-0.2,0-0.4,0.1-0.4,0.1c0,0.1,0.1,0.2,0.4,0.2h0.7c-0.1,0-0.2-0.1-0.2-0.2s0.2-0.1,0.4-0.1
		H584.5z"/>
</g>
<g>
	<path fill="#BCADAC" d="M584.3,250.1c0,0.1,0.1,0.2,0.4,0.2l11.6,0.5c0.2,0,0.4-0.1,0.4-0.1l0,0c0-0.1-0.1-0.2-0.4-0.2l-11.6-0.5
		C584.4,249.9,584.3,249.9,584.3,250.1L584.3,250.1z"/>
	<path fill="#BCADAC" d="M596.4,250.5c0.2,0,0.4,0.1,0.4,0.2s-0.2,0.1-0.4,0.1h-0.7c0.1,0,0.3-0.1,0.3-0.1c0-0.1-0.1-0.2-0.4-0.2
		H596.4z"/>
	<path fill="#BCADAC" d="M584.7,249.9c-0.2,0-0.4,0.1-0.4,0.1c0,0.1,0.1,0.2,0.4,0.2h0.7c-0.1,0-0.2-0.1-0.2-0.2
		c0-0.1,0.2-0.1,0.4-0.1H584.7z"/>
</g>
<g>
	<path fill="#BCADAC" d="M584.4,246.4c0,0.1,0.1,0.2,0.4,0.2l11.6,0.5c0.2,0,0.4-0.1,0.4-0.1l0,0c0-0.1-0.1-0.2-0.4-0.2l-11.6-0.5
		C584.6,246.2,584.4,246.3,584.4,246.4L584.4,246.4z"/>
	<path fill="#BCADAC" d="M596.5,246.8c0.2,0,0.4,0.1,0.4,0.2c0,0.1-0.2,0.1-0.4,0.1h-0.7c0.1,0,0.3-0.1,0.3-0.1s-0.1-0.2-0.4-0.2
		H596.5z"/>
	<path fill="#BCADAC" d="M584.8,246.3c-0.2,0-0.4,0.1-0.4,0.1c0,0.1,0.1,0.2,0.4,0.2h0.7c-0.1,0-0.2-0.1-0.2-0.2
		c0-0.1,0.2-0.1,0.4-0.1H584.8z"/>
</g>
<g>
	<path fill="#BCADAC" d="M584.7,242.9c0,0.1,0.1,0.2,0.4,0.2l11.6,0.5c0.2,0,0.4-0.1,0.4-0.1l0,0c0-0.1-0.1-0.2-0.4-0.2l-11.6-0.5
		C584.9,242.8,584.7,242.9,584.7,242.9L584.7,242.9z"/>
	<path fill="#BCADAC" d="M596.6,243.3c0.2,0,0.4,0.1,0.4,0.2s-0.2,0.1-0.4,0.1h-0.7c0.1,0,0.3-0.1,0.3-0.1s-0.1-0.2-0.4-0.2H596.6z"
		/>
	<path fill="#BCADAC" d="M585,242.8c-0.2,0-0.4,0.1-0.4,0.1c0,0.1,0.1,0.2,0.4,0.2h0.7c-0.1,0-0.2-0.1-0.2-0.2
		c0-0.1,0.2-0.1,0.4-0.1H585z"/>
</g>
<g>
	<path fill="#BCADAC" d="M584.9,238.2c0,0.1,0.1,0.2,0.4,0.2l11.6,0.5c0.2,0,0.4-0.1,0.4-0.1l0,0c0-0.1-0.1-0.2-0.4-0.2l-11.6-0.5
		C585.1,238,584.9,238,584.9,238.2L584.9,238.2z"/>
	<path fill="#BCADAC" d="M597,238.5c0.2,0,0.4,0.1,0.4,0.2c0,0.1-0.2,0.1-0.4,0.1h-0.7c0.1,0,0.3-0.1,0.3-0.1s-0.1-0.2-0.4-0.2H597z
		"/>
	<path fill="#BCADAC" d="M585.4,238c-0.2,0-0.4,0.1-0.4,0.1c0,0.1,0.1,0.2,0.4,0.2h0.7c-0.1,0-0.2-0.1-0.2-0.2
		c0-0.1,0.2-0.1,0.4-0.1H585.4z"/>
</g>
<g>
	<line fill="none" stroke="#C1C1C1" stroke-width="0.75" stroke-miterlimit="10" x1="585.9" y1="134.5" x2="587.3" y2="134.6"/>
	<path fill="#D8D6D6" d="M585.9,135.5c0,0.9-0.7,1.4-1.5,1.4l0,0c-0.9,0-1.4-0.7-1.4-1.5v-1.8c0-0.9,0.7-1.4,1.5-1.4l0,0
		c0.9,0,1.4,0.7,1.4,1.5V135.5z"/>
</g>
<g>
	<line fill="none" stroke="#C1C1C1" stroke-width="0.75" stroke-miterlimit="10" x1="606.8" y1="135.3" x2="605.4" y2="135.3"/>
	<path fill="#D8D6D6" d="M606.6,136.3c-0.1,0.9,0.6,1.5,1.4,1.6l0,0c0.9,0.1,1.5-0.6,1.6-1.4l0.1-1.8c0.1-0.9-0.6-1.5-1.4-1.6l0,0
		c-0.9-0.1-1.5,0.6-1.6,1.4L606.6,136.3z"/>
</g>
<g>
	<line fill="none" stroke="#C1C1C1" stroke-width="0.75" stroke-miterlimit="10" x1="585.5" y1="142.9" x2="587" y2="142.9"/>
	<path fill="#D8D6D6" d="M585.5,143.9c0,0.9-0.7,1.4-1.5,1.4l0,0c-0.9,0-1.4-0.7-1.4-1.5V142c0-0.9,0.7-1.4,1.5-1.4l0,0
		c0.9,0,1.4,0.7,1.4,1.5V143.9z"/>
</g>
<g>
	<line fill="none" stroke="#C1C1C1" stroke-width="0.75" stroke-miterlimit="10" x1="606.2" y1="143.6" x2="604.8" y2="143.5"/>
	<path fill="#D8D6D6" d="M606,144.6c-0.1,0.9,0.6,1.5,1.4,1.6l0,0c0.9,0.1,1.5-0.6,1.6-1.4l0.1-1.8c0.1-0.9-0.6-1.5-1.4-1.6l0,0
		c-0.9-0.1-1.5,0.6-1.6,1.4L606,144.6z"/>
</g>
<g>
	<line fill="none" stroke="#C1C1C1" stroke-width="0.75" stroke-miterlimit="10" x1="606.1" y1="151.9" x2="604.8" y2="151.9"/>
	<path fill="#D8D6D6" d="M606,152.8c-0.1,0.9,0.6,1.5,1.4,1.6l0,0c0.9,0.1,1.5-0.6,1.6-1.4l0.1-1.8c0.1-0.9-0.6-1.5-1.4-1.6l0,0
		c-0.9-0.1-1.5,0.6-1.6,1.4L606,152.8z"/>
</g>
<line fill="none" stroke="#DDDBDB" stroke-width="0.25" stroke-miterlimit="10" x1="330.9" y1="227.8" x2="330.4" y2="270.8"/>
<path fill="#E0DCDC" d="M448.2,235.9c0,0.4-0.3,1.2-0.7,1.3l0,0c-0.4,0-0.9-0.4-0.9-1.2l-0.7-8.7c0-0.4,0.4-0.9,0.7-0.9l0,0
	c0.4,0,0.9,0.4,0.9,0.7L448.2,235.9z"/>
<path fill="#E0DCDC" d="M456.7,236.9c0,0.4-0.4,1.2-0.7,1.3l0,0c-0.4,0-0.9-0.4-0.9-1.2l-0.6-8.7c0-0.4,0.4-0.9,0.9-0.9l0,0
	c0.4,0,0.9,0.4,0.9,0.9L456.7,236.9z"/>
<path fill="#E0DCDC" d="M482.1,237.4c0,0.4-0.3,1.2-0.7,1.3l0,0c-0.4,0-0.9-0.4-0.9-1.2l-0.7-8.7c0-0.4,0.4-0.9,0.7-0.9l0,0
	c0.4,0,0.9,0.4,0.9,0.7L482.1,237.4z"/>
<path fill="#E0DCDC" d="M510.7,233.7c0,0.4-0.3,1.2-0.7,1.3l0,0c-0.4,0-0.9-0.4-0.9-1.2l-0.7-8.7c0-0.4,0.4-0.9,0.7-0.9l0,0
	c0.4,0,0.9,0.4,0.9,0.7L510.7,233.7z"/>
<path fill="#E0DCDC" d="M518.9,231.6c0.1,0.4-0.3,1.3-0.7,1.3l0,0c-0.4,0.1-0.9-0.4-0.9-1.2l-0.9-8.7c-0.1-0.4,0.4-0.9,0.7-0.9l0,0
	c0.4-0.1,0.9,0.4,0.9,0.7L518.9,231.6z"/>
<path fill="#3D3D3D" d="M514.2,194.4c0,0.9,1.4,1.7,3.3,1.7h0.1c1.7,0,3.3-0.9,3.3-1.7l-0.1-2.5c0-0.7-6.7-0.7-6.7,0L514.2,194.4
	L514.2,194.4z"/>
<path fill="#3D3D3D" d="M513.6,198.7c0,0.9,0.9,1.7,2.5,1.7h2.7c1.5,0,2.6-0.9,2.6-1.7v-0.1c0-0.9-1-1.5-2.6-1.5h-2.7
	C514.6,197.1,513.6,197.7,513.6,198.7L513.6,198.7z"/>
<path fill="#CC9864" d="M507.5,169.9c1.2-0.9,3.6-2.2,6.1-2.6c2.2-2.1,6.5-2.1,8.8,0.1c2,0.3,3.8,1.2,5.3,2.2
	c0.7,0.5,1.4,1.1,2.3,1.3c0.6,0.2,1.1,0.3,1.7,0.4c2.1,0.4,4.1,0.9,6.1,1.5c5.3,1.4,10.6,3,15.7,4.8c1.7,0.6,3.5,1.2,5.1,2.1
	c0.5,0.3,1.5,0.9,0.4,1.2c-1.4,0.5-3.3,0.3-4.8,0.3c-3-0.1-7,0.5-10,0.3c-8.5-0.6-17.9-0.9-26.5-0.9c-9-0.1-16.1,0.1-24.9,0.3
	c-3.2,0.1-6.4-0.9-9.5-1.1c-2,0-3.8,0-5.8-0.4c-0.4-0.1-2-0.5-1.1-1.1c1.1-0.9,2.8-1.2,4.2-1.7c4.4-1.4,9.1-2.6,13.7-3.7
	c2.1-0.5,4.3-0.9,6.5-1.4C503.3,171.2,505.7,171.1,507.5,169.9z"/>
<path fill="#3D3D3D" d="M521.6,164c0-0.9-1.4-1.6-3.3-1.7h-0.2c-1.7,0-3.3,0.7-3.3,1.5v2.5c0,0.7,6.7,0.9,6.7,0.1L521.6,164
	L521.6,164z"/>
<path fill="#CC9864" d="M528,188.3c-1.3,0.9-3.6,2.1-6.1,2.6c-2.3,2.1-6.6,2-8.8-0.1c-2-0.4-3.8-1.2-5.3-2.3
	c-0.7-0.5-1.4-1.1-2.3-1.3c-0.6-0.2-1.2-0.3-1.7-0.4c-2.1-0.4-4.3-0.9-6.5-1.2c-5.3-1.1-10.6-2.2-15.9-3.8c-1.4-0.4-3.2-0.7-4.3-1.6
	c-0.9-0.6,0.4-0.9,0.9-0.9c2-0.2,3.8,0,5.6,0.1c3.2,0.2,6.3,0,9.5,0.3c8.8,0.9,15.8,0.5,24.6,0.7c8.5,0.1,17.6,0.8,26.2,0.3
	c3-0.1,7.1,0.3,10,0.2c1.6,0,3.3-0.2,4.8,0.3c0.9,0.3,0.5,0.9-0.1,1.1c-1.6,0.7-3.5,1.1-5.3,1.5c-4.3,0.9-8.8,1.7-13.2,2.6
	c-2,0.4-4,0.7-6,0.9C531.9,187,529.7,187,528,188.3z"/>
<path fill="#3D3D3D" d="M290.7,159c0,0.7,1.2,1.4,2.7,1.4h0.1c1.4,0,2.7-0.7,2.7-1.4l-0.1-2.1c0-0.7-5.6-0.7-5.6,0L290.7,159
	L290.7,159z"/>
<path fill="#3D3D3D" d="M289.9,154c0,0.9,0.9,1.5,2.2,1.5h2.5c1.4,0,2.3-0.7,2.3-1.5v-0.1c0-0.9-0.9-1.4-2.3-1.4h-2.5
	C290.7,152.5,289.9,153,289.9,154L289.9,154z"/>
<path fill="#E0DCDC" d="M343.9,189.6c-0.1,0.4-0.6,0.7-0.9,0.7l-0.4-0.1c-0.4-0.1-0.7-0.6-0.7-0.9l2-9c0.1-0.4,0.6-0.7,0.9-0.7
	l0.4,0.1c0.4,0.1,0.7,0.6,0.7,0.9L343.9,189.6z"/>
<path fill="#E0DCDC" d="M363.9,196.9c-0.1,0.4-0.6,0.7-0.9,0.7l-0.4-0.1c-0.4-0.1-0.7-0.6-0.7-0.9l2-9c0.1-0.4,0.6-0.7,0.9-0.7
	l0.4,0.1c0.4,0.1,0.7,0.6,0.7,0.9L363.9,196.9z"/>
<path fill="#E0DCDC" d="M389,199.7c-0.1,0.4-0.6,0.8-0.9,0.7l-0.4-0.1c-0.4-0.1-0.8-0.6-0.7-0.9l1.7-9c0.1-0.4,0.6-0.8,0.9-0.7
	l0.4,0.1c0.4,0.1,0.8,0.6,0.7,0.9L389,199.7z"/>
<path fill="#E0DCDC" d="M396.7,198.7c-0.1,0.4-0.5,0.7-0.9,0.7l-0.4-0.1c-0.4-0.1-0.6-0.5-0.5-0.9l2-9c0.1-0.4,0.5-0.7,0.9-0.7
	l0.4,0.1c0.4,0.1,0.6,0.5,0.5,0.9L396.7,198.7z"/>
<path fill="#E0DCDC" d="M286.1,232.9c0,0.4-0.4,0.9-0.9,0.9h-0.4c-0.4,0-0.9-0.4-0.9-0.9v-9.1c0-0.4,0.4-0.9,0.9-0.9h0.4
	c0.4,0,0.9,0.4,0.9,0.9V232.9z"/>
<path fill="#E0DCDC" d="M296.4,237.7c0,0.4-0.4,0.9-0.9,0.9h-0.4c-0.4,0-0.9-0.4-0.9-0.9v-9.1c0-0.4,0.4-0.9,0.9-0.9h0.4
	c0.4,0,0.9,0.4,0.9,0.9V237.7z"/>
<path fill="#E0DCDC" d="M311.8,240.3c0,0.4-0.4,0.9-0.9,0.9h-0.4c-0.4,0-0.9-0.4-0.9-0.9v-9.1c0-0.4,0.4-0.9,0.9-0.9h0.4
	c0.4,0,0.9,0.4,0.9,0.9V240.3z"/>
<path fill="#E0DCDC" d="M331.9,241.4c0,0.4-0.4,0.9-0.9,0.9h-0.4c-0.4,0-0.9-0.4-0.9-0.9v-9.1c0-0.4,0.4-0.9,0.9-0.9h0.4
	c0.4,0,0.9,0.4,0.9,0.9V241.4L331.9,241.4z"/>
<path fill="#E0DCDC" d="M337.3,185.7c-0.1,0.4-0.5,0.7-0.9,0.7l-0.4-0.1c-0.4-0.1-0.6-0.5-0.5-0.9l1.6-9c0.1-0.4,0.5-0.7,0.9-0.7
	l0.4,0.1c0.4,0.1,0.6,0.5,0.5,0.9L337.3,185.7z"/>
<path fill="#D1D1D1" d="M685.7,89.5c0.9,0,1.6,0.7,1.6,1.6c0,0.9-0.7,1.6-1.6,1.6s-1.6-0.7-1.6-1.6
	C684.1,90.2,684.9,89.5,685.7,89.5z"/>
<path fill="#D1D1D1" d="M683.7,95.4c0.9,0,1.6,0.7,1.6,1.6c0,0.9-0.7,1.6-1.6,1.6c-0.9,0-1.6-0.7-1.6-1.6
	C682.1,96.1,682.8,95.4,683.7,95.4z"/>
<path fill="#D1D1D1" d="M681.2,101.2c0.9,0,1.6,0.7,1.6,1.6c0,0.9-0.7,1.6-1.6,1.6c-0.9,0-1.6-0.7-1.6-1.6
	C679.7,101.9,680.3,101.2,681.2,101.2z"/>
<path fill="#D1D1D1" d="M679.2,106.9c0.9,0,1.6,0.7,1.6,1.6c0,0.9-0.7,1.6-1.6,1.6c-0.9,0-1.6-0.7-1.6-1.6
	C677.5,107.7,678.3,106.9,679.2,106.9z"/>
<g>
	<line fill="none" stroke="#C1C1C1" stroke-width="0.75" stroke-miterlimit="10" x1="680.7" y1="89.5" x2="682.1" y2="90"/>
	<path fill="#D8D6D6" d="M681.1,88.6c0.3-0.9-0.1-1.7-0.9-2l0,0c-0.9-0.3-1.7,0.1-2,0.9l-0.7,1.7c-0.3,0.9,0.1,1.7,0.9,2l0,0
		c0.9,0.3,1.7-0.1,2-0.9L681.1,88.6z"/>
</g>
<g>
	<line fill="none" stroke="#C1C1C1" stroke-width="0.75" stroke-miterlimit="10" x1="678.4" y1="94.9" x2="679.9" y2="95.4"/>
	<path fill="#D8D6D6" d="M678.9,94c0.3-0.9-0.1-1.7-0.9-2l0,0c-0.9-0.3-1.7,0.1-2,0.9l-0.7,1.7c-0.3,0.9,0.1,1.7,0.9,2l0,0
		c0.9,0.3,1.7-0.1,2-0.9L678.9,94z"/>
</g>
<g>
	<line fill="none" stroke="#C1C1C1" stroke-width="0.75" stroke-miterlimit="10" x1="676.1" y1="100.7" x2="677.4" y2="101.2"/>
	<path fill="#D8D6D6" d="M676.6,99.9c0.3-0.9-0.1-1.7-0.9-2l0,0c-0.9-0.3-1.7,0.1-2,0.9l-0.7,1.7c-0.3,0.9,0.1,1.7,0.9,2l0,0
		c0.9,0.3,1.7-0.1,2-0.9L676.6,99.9z"/>
</g>
<g>
	<line fill="none" stroke="#C1C1C1" stroke-width="0.75" stroke-miterlimit="10" x1="673.6" y1="107" x2="675" y2="107.5"/>
	<path fill="#D8D6D6" d="M674,106.1c0.3-0.9-0.1-1.7-0.9-2l0,0c-0.9-0.3-1.7,0.1-2,0.9l-0.7,1.7c-0.3,0.9,0.1,1.7,0.9,2l0,0
		c0.9,0.3,1.7-0.1,2-0.9L674,106.1z"/>
</g>
<path fill="#F9F9F9" d="M689,119.6c0,0.2-0.1,0.4-0.4,0.4h-11.5c-0.2,0-0.4-0.2-0.4-0.4l0,0c0-0.2,0.1-0.4,0.4-0.4h11.5
	C688.8,119.2,689,119.4,689,119.6L689,119.6z"/>
<g>
	<g>
		<path fill="#939393" d="M688.1,249.8c0,0.1-0.3,0.2-0.4,0.2l-12.9-0.1c-0.3,0-0.4-0.1-0.4-0.3l0,0c0-0.1,0.3-0.2,0.4-0.2l12.9,0.1
			C687.9,249.5,688.1,249.7,688.1,249.8L688.1,249.8z"/>
		<path fill="#939393" d="M674.7,249.4c-0.3,0-0.4,0.1-0.4,0.2s0.3,0.3,0.4,0.3h0.8c-0.1-0.1-0.3-0.1-0.3-0.2c0-0.1,0.3-0.2,0.4-0.2
			L674.7,249.4z"/>
		<path fill="#939393" d="M687.8,249.5c0.3,0,0.4,0.1,0.4,0.2c0,0.1-0.3,0.2-0.4,0.2H687c0.1-0.1,0.3-0.1,0.3-0.2
			c0-0.1-0.3-0.2-0.4-0.2H687.8z"/>
	</g>
	<g>
		<path fill="#939393" d="M688.7,135.2c0,0.1-0.1,0.2-0.4,0.2h-11.7c-0.2,0-0.4-0.1-0.4-0.3l0,0c0-0.1,0.1-0.2,0.4-0.2h11.7
			C688.6,135,688.7,135.1,688.7,135.2L688.7,135.2z"/>
		<path fill="#939393" d="M676.6,134.8c-0.2,0-0.4,0.1-0.4,0.2s0.1,0.2,0.4,0.3h0.7c-0.1-0.1-0.2-0.1-0.2-0.2c0-0.1,0.1-0.2,0.4-0.2
			L676.6,134.8z"/>
		<path fill="#939393" d="M688.4,135c0.2,0,0.4,0.1,0.4,0.2s-0.1,0.3-0.4,0.3h-0.7c0.1-0.1,0.2-0.1,0.2-0.2c0-0.1-0.1-0.2-0.4-0.2
			L688.4,135z"/>
	</g>
	<g>
		<path fill="#939393" d="M688.7,146.1c0,0.1-0.1,0.2-0.4,0.2l-11.9-0.1c-0.2,0-0.4-0.1-0.4-0.3l0,0c0-0.1,0.1-0.2,0.4-0.2l11.9,0.1
			C688.5,145.8,688.7,145.9,688.7,146.1L688.7,146.1z"/>
		<path fill="#939393" d="M676.4,145.8c-0.2,0-0.4,0.1-0.4,0.2c0,0.1,0.1,0.3,0.4,0.3h0.7c-0.1-0.1-0.3-0.1-0.3-0.2
			c0-0.1,0.1-0.2,0.4-0.2L676.4,145.8z"/>
		<path fill="#939393" d="M688.4,145.8c0.2,0,0.4,0.1,0.4,0.2c0,0.1-0.1,0.2-0.4,0.3h-0.7c0.1-0.1,0.3-0.1,0.3-0.2
			c0-0.1-0.2-0.2-0.4-0.2L688.4,145.8z"/>
	</g>
	<g>
		<path fill="#939393" d="M688.6,154.6c0,0.1-0.1,0.2-0.4,0.2l-11.8-0.1c-0.2,0-0.4-0.1-0.4-0.3l0,0c0-0.1,0.1-0.2,0.4-0.2l11.8,0.1
			C688.4,154.3,688.6,154.4,688.6,154.6L688.6,154.6z"/>
		<path fill="#939393" d="M676.4,154.1c-0.2,0-0.4,0.1-0.4,0.2c0,0.1,0.1,0.3,0.4,0.3h0.7c-0.1-0.1-0.3-0.1-0.3-0.2
			c0-0.1,0.1-0.2,0.4-0.2L676.4,154.1z"/>
		<path fill="#939393" d="M688.2,154.3c0.2,0,0.4,0.1,0.4,0.2c0,0.1-0.1,0.3-0.4,0.3h-0.7c0.1-0.1,0.3-0.1,0.2-0.2
			c0-0.1-0.1-0.2-0.4-0.2L688.2,154.3z"/>
	</g>
	<g>
		<path fill="#939393" d="M688.6,162.7c0,0.1-0.1,0.2-0.4,0.2l-11.9-0.1c-0.2,0-0.4-0.1-0.4-0.3l0,0c0-0.1,0.1-0.2,0.4-0.2l11.9,0.1
			C688.4,162.4,688.6,162.5,688.6,162.7L688.6,162.7z"/>
		<path fill="#939393" d="M676.3,162.3c-0.2,0-0.4,0.1-0.4,0.2c0,0.1,0.1,0.3,0.4,0.3h0.7c-0.1-0.1-0.3-0.1-0.3-0.2
			c0-0.1,0.1-0.2,0.4-0.2L676.3,162.3z"/>
		<path fill="#939393" d="M688.2,162.4c0.2,0,0.4,0.1,0.4,0.2c0,0.1-0.1,0.2-0.4,0.3h-0.7c0.1-0.1,0.3-0.1,0.3-0.2s-0.2-0.2-0.4-0.2
			L688.2,162.4z"/>
	</g>
	<g>
		<path fill="#939393" d="M688.3,256.8c0,0.1-0.3,0.2-0.5,0.2l-13.3-0.1c-0.3,0-0.5-0.1-0.5-0.3l0,0c0-0.1,0.3-0.2,0.5-0.2l13.3,0.1
			C688,256.5,688.3,256.6,688.3,256.8L688.3,256.8z"/>
		<path fill="#939393" d="M674.5,256.5c-0.3,0-0.5,0.1-0.5,0.2c0,0.1,0.3,0.3,0.5,0.3h0.9c-0.2-0.1-0.3-0.1-0.3-0.2s0.3-0.2,0.5-0.2
			L674.5,256.5z"/>
		<path fill="#939393" d="M687.9,256.5c0.3,0,0.5,0.1,0.5,0.2c0,0.1-0.2,0.2-0.5,0.2H687c0.2-0.1,0.3-0.1,0.3-0.2
			c0-0.1-0.3-0.2-0.5-0.2H687.9z"/>
	</g>
	<g>
		<path fill="#939393" d="M688.6,170.6c0,0.1-0.2,0.2-0.4,0.2l-12-0.1c-0.2,0-0.4-0.1-0.4-0.3l0,0c0-0.1,0.2-0.2,0.4-0.2l12,0.1
			C688.4,170.4,688.6,170.5,688.6,170.6L688.6,170.6z"/>
		<path fill="#939393" d="M676.1,170.4c-0.2,0-0.4,0.1-0.4,0.2c0,0.1,0.2,0.3,0.4,0.3h0.7c-0.1-0.1-0.3-0.1-0.3-0.2
			c0-0.1,0.2-0.2,0.4-0.2L676.1,170.4z"/>
		<path fill="#939393" d="M688.2,170.4c0.2,0,0.4,0.1,0.4,0.2c0,0.1-0.1,0.2-0.4,0.3h-0.7c0.1-0.1,0.3-0.1,0.3-0.2
			c0-0.1-0.2-0.2-0.4-0.2L688.2,170.4z"/>
	</g>
	<g>
		<path fill="#939393" d="M688.8,178.6c0,0.1-0.3,0.2-0.4,0.2l-12.5-0.1c-0.3,0-0.4-0.1-0.4-0.3l0,0c0-0.1,0.3-0.2,0.4-0.2l12.5,0.1
			C688.6,178.2,688.8,178.4,688.8,178.6L688.8,178.6z"/>
		<path fill="#939393" d="M675.9,178.1c-0.3,0-0.4,0.1-0.4,0.2c0,0.1,0.3,0.3,0.4,0.3h0.8c-0.1-0.1-0.3-0.1-0.3-0.2
			c0-0.1,0.3-0.2,0.4-0.2L675.9,178.1z"/>
		<path fill="#939393" d="M688.4,178.2c0.3,0,0.4,0.1,0.4,0.2s-0.1,0.2-0.4,0.3h-0.8c0.1-0.1,0.3-0.1,0.3-0.2s-0.3-0.2-0.4-0.2
			L688.4,178.2z"/>
	</g>
	<g>
		<path fill="#939393" d="M688.3,253.4c0,0.1-0.3,0.2-0.4,0.2l-13.2-0.1c-0.3,0-0.4-0.1-0.4-0.3l0,0c0-0.1,0.3-0.2,0.4-0.2l13.2,0.1
			C688.1,253.1,688.3,253.3,688.3,253.4L688.3,253.4z"/>
		<path fill="#939393" d="M674.8,253c-0.3,0-0.4,0.1-0.4,0.2c0,0.1,0.3,0.3,0.4,0.3h0.8c-0.1-0.1-0.3-0.1-0.3-0.2
			c0-0.1,0.3-0.2,0.4-0.2L674.8,253z"/>
		<path fill="#939393" d="M687.9,253.2c0.3,0,0.4,0.1,0.4,0.2c0,0.1-0.3,0.2-0.4,0.2h-0.8c0.1-0.1,0.3-0.1,0.3-0.2
			c0-0.1-0.3-0.2-0.4-0.2H687.9z"/>
	</g>
	<g>
		<path fill="#939393" d="M688.6,186.2c0,0.1-0.2,0.2-0.4,0.2l-12.4-0.1c-0.2,0-0.4-0.1-0.4-0.3l0,0c0-0.1,0.2-0.2,0.4-0.2l12.4,0.1
			C688.3,185.9,688.6,186.1,688.6,186.2L688.6,186.2z"/>
		<path fill="#939393" d="M675.7,185.9c-0.2,0-0.4,0.1-0.4,0.2c0,0.1,0.2,0.3,0.4,0.3h0.7c-0.1-0.1-0.3-0.1-0.3-0.2
			c0-0.1,0.2-0.2,0.4-0.2L675.7,185.9z"/>
		<path fill="#939393" d="M688.2,185.9c0.2,0,0.4,0.1,0.4,0.2s-0.2,0.2-0.4,0.2h-0.7c0.1-0.1,0.3-0.1,0.3-0.2c0-0.1-0.2-0.2-0.4-0.2
			H688.2z"/>
	</g>
	<g>
		<path fill="#939393" d="M688.6,193.8c0,0.1-0.3,0.2-0.4,0.2l-12.6-0.1c-0.3,0-0.4-0.1-0.4-0.3l0,0c0-0.1,0.3-0.2,0.4-0.2l12.6,0.1
			C688.4,193.5,688.6,193.7,688.6,193.8L688.6,193.8z"/>
		<path fill="#939393" d="M675.5,193.5c-0.3,0-0.4,0.1-0.4,0.2c0,0.1,0.3,0.3,0.4,0.3h0.8c-0.1-0.1-0.3-0.1-0.3-0.2
			c0-0.1,0.3-0.2,0.4-0.2L675.5,193.5z"/>
		<path fill="#939393" d="M688.3,193.5c0.3,0,0.4,0.1,0.4,0.2c0,0.1-0.3,0.2-0.4,0.2h-0.8c0.1-0.1,0.3-0.1,0.3-0.2
			c0-0.1-0.3-0.2-0.4-0.2H688.3z"/>
	</g>
	<g>
		<path fill="#939393" d="M688.6,200.6c0,0.1-0.3,0.2-0.4,0.2l-12.9-0.1c-0.3,0-0.4-0.1-0.4-0.3l0,0c0-0.1,0.3-0.2,0.4-0.2l12.9,0.1
			C688.4,200.2,688.6,200.4,688.6,200.6L688.6,200.6z"/>
		<path fill="#939393" d="M675.3,200.2c-0.3,0-0.4,0.1-0.4,0.2c0,0.1,0.3,0.3,0.4,0.3h0.8c-0.1-0.1-0.3-0.1-0.3-0.2
			c0-0.1,0.3-0.2,0.4-0.2L675.3,200.2z"/>
		<path fill="#939393" d="M688.2,200.4c0.3,0,0.4,0.1,0.4,0.2c0,0.1-0.1,0.2-0.4,0.3h-0.8c0.1-0.1,0.3-0.1,0.3-0.2
			c0-0.1-0.3-0.2-0.4-0.2L688.2,200.4z"/>
	</g>
	<g>
		<path fill="#939393" d="M688.4,206.9c0,0.1-0.3,0.2-0.4,0.2l-12.9-0.1c-0.3,0-0.4-0.1-0.4-0.3l0,0c0-0.1,0.3-0.2,0.4-0.2l12.9,0.1
			C688.3,206.7,688.4,206.7,688.4,206.9L688.4,206.9z"/>
		<path fill="#939393" d="M675.1,206.6c-0.3,0-0.4,0.1-0.4,0.2c0,0.1,0.3,0.3,0.4,0.3h0.8c-0.1-0.1-0.3-0.1-0.3-0.2
			c0-0.1,0.3-0.2,0.4-0.2L675.1,206.6z"/>
		<path fill="#939393" d="M688,206.7c0.3,0,0.4,0.1,0.4,0.3s-0.3,0.2-0.4,0.2h-0.8c0.1-0.1,0.3-0.1,0.3-0.2c0-0.1-0.3-0.2-0.4-0.3
			H688z"/>
	</g>
	<g>
		<path fill="#939393" d="M688.3,212.4c0,0.1-0.3,0.2-0.4,0.2l-12.9-0.1c-0.3,0-0.4-0.1-0.4-0.3l0,0c0-0.1,0.3-0.2,0.4-0.2l12.9,0.1
			C688,212.1,688.3,212.2,688.3,212.4L688.3,212.4z"/>
		<path fill="#939393" d="M675,212c-0.3,0-0.4,0.1-0.4,0.2c0,0.1,0.3,0.3,0.4,0.3h0.8c-0.1-0.1-0.3-0.1-0.3-0.2s0.3-0.2,0.4-0.2
			L675,212z"/>
		<path fill="#939393" d="M687.9,212.1c0.3,0,0.4,0.1,0.4,0.2c0,0.1-0.3,0.2-0.4,0.2h-0.8c0.1-0.1,0.3-0.1,0.3-0.2s-0.3-0.2-0.4-0.2
			H687.9z"/>
	</g>
	<g>
		<path fill="#939393" d="M688.4,217.1c0,0.1-0.2,0.2-0.4,0.2l-12.8-0.1c-0.2,0-0.4-0.1-0.4-0.3l0,0c0-0.1,0.2-0.2,0.4-0.2l12.8,0.1
			C688.1,216.8,688.4,217,688.4,217.1L688.4,217.1z"/>
		<path fill="#939393" d="M675.1,216.7c-0.2,0-0.4,0.1-0.4,0.2s0.2,0.3,0.4,0.3h0.7c-0.1-0.1-0.3-0.1-0.3-0.2c0-0.1,0.2-0.2,0.4-0.2
			L675.1,216.7z"/>
		<path fill="#939393" d="M687.9,216.8c0.2,0,0.4,0.1,0.4,0.3s-0.2,0.2-0.4,0.2h-0.7c0.1,0,0.3-0.1,0.3-0.2c0-0.1-0.2-0.3-0.4-0.3
			H687.9z"/>
	</g>
	<g>
		<path fill="#939393" d="M688.3,246.2c0,0.1-0.2,0.2-0.4,0.2l-13.4-0.1c-0.2,0-0.4-0.1-0.4-0.3l0,0c0-0.1,0.2-0.2,0.4-0.2l13.4,0.1
			C688,245.9,688.3,246,688.3,246.2L688.3,246.2z"/>
		<path fill="#939393" d="M674.4,245.8c-0.2,0-0.4,0.1-0.4,0.2s0.2,0.3,0.4,0.3h0.9c-0.1-0.1-0.3-0.1-0.3-0.2s0.2-0.2,0.4-0.2
			L674.4,245.8z"/>
		<path fill="#939393" d="M687.8,245.9c0.2,0,0.4,0.1,0.4,0.3c0,0.1-0.2,0.2-0.4,0.2h-0.9c0.1,0,0.3-0.1,0.3-0.2
			c0-0.1-0.2-0.3-0.4-0.3H687.8z"/>
	</g>
	<g>
		<path fill="#939393" d="M688.2,242.7c0,0.1-0.2,0.2-0.4,0.2l-13.2-0.1c-0.2,0-0.4-0.1-0.4-0.3l0,0c0-0.1,0.2-0.2,0.4-0.2l13.2,0.1
			C688,242.3,688.2,242.4,688.2,242.7L688.2,242.7z"/>
		<path fill="#939393" d="M674.8,242.2c-0.2,0-0.4,0.1-0.4,0.2c0,0.1,0.2,0.3,0.4,0.3h0.9c-0.1-0.1-0.3-0.1-0.3-0.2
			c0-0.1,0.2-0.2,0.4-0.2L674.8,242.2z"/>
		<path fill="#939393" d="M687.8,242.3c0.2,0,0.4,0.1,0.4,0.3c0,0.1-0.2,0.2-0.4,0.2h-0.9c0.1,0,0.3-0.1,0.3-0.2
			c0-0.1-0.2-0.3-0.4-0.3H687.8z"/>
	</g>
	<g>
		<path fill="#939393" d="M688.3,238.4c0,0.1-0.2,0.2-0.4,0.2l-13.2-0.1c-0.2,0-0.4-0.1-0.4-0.3l0,0c0-0.1,0.2-0.2,0.4-0.2l13.2,0.1
			C688,238.2,688.3,238.2,688.3,238.4L688.3,238.4z"/>
		<path fill="#939393" d="M674.8,238c-0.2,0-0.4,0.1-0.4,0.2c0,0.1,0.2,0.3,0.4,0.3h0.9c-0.1-0.1-0.3-0.1-0.3-0.2
			c0-0.1,0.2-0.2,0.4-0.2L674.8,238z"/>
		<path fill="#939393" d="M687.8,238.2c0.2,0,0.4,0.1,0.4,0.3c0,0.1-0.2,0.2-0.4,0.2h-0.9c0.1,0,0.3-0.1,0.3-0.2
			c0-0.1-0.2-0.3-0.4-0.3H687.8z"/>
	</g>
	<g>
		<path fill="#939393" d="M688.2,235.5c0,0.1-0.2,0.2-0.4,0.2l-13.2-0.1c-0.2,0-0.4-0.1-0.4-0.3l0,0c0-0.1,0.2-0.2,0.4-0.2l13.2,0.1
			C688,235.3,688.2,235.4,688.2,235.5L688.2,235.5z"/>
		<path fill="#939393" d="M674.8,235.2c-0.2,0-0.4,0.1-0.4,0.2c0,0.1,0.2,0.3,0.4,0.3h0.9c-0.1-0.1-0.3-0.1-0.3-0.2
			c0-0.1,0.2-0.2,0.4-0.2L674.8,235.2z"/>
		<path fill="#939393" d="M687.8,235.3c0.2,0,0.4,0.1,0.4,0.3c0,0.1-0.2,0.2-0.4,0.2h-0.9c0.1,0,0.3-0.1,0.3-0.2
			c0-0.1-0.2-0.3-0.4-0.3H687.8z"/>
	</g>
	<g>
		<path fill="#939393" d="M688.4,231.8c0,0.1-0.2,0.2-0.4,0.2l-13.2-0.1c-0.2,0-0.4-0.1-0.4-0.3l0,0c0-0.1,0.2-0.2,0.4-0.2l13.2,0.1
			C688.2,231.5,688.4,231.7,688.4,231.8L688.4,231.8z"/>
		<path fill="#939393" d="M674.9,231.4c-0.2,0-0.4,0.1-0.4,0.2s0.2,0.3,0.4,0.3h0.9c-0.1-0.1-0.3-0.1-0.3-0.2c0-0.1,0.2-0.2,0.4-0.2
			L674.9,231.4z"/>
		<path fill="#939393" d="M688,231.5c0.2,0,0.4,0.1,0.4,0.3s-0.2,0.2-0.4,0.2h-0.9c0.1,0,0.3-0.1,0.3-0.2c0-0.1-0.2-0.3-0.4-0.3H688
			z"/>
	</g>
	<g>
		<path fill="#939393" d="M688.4,228.4c0,0.1-0.2,0.2-0.4,0.2l-13.2-0.1c-0.2,0-0.4-0.1-0.4-0.3l0,0c0-0.1,0.2-0.2,0.4-0.2l13.2,0.1
			C688.1,228.2,688.4,228.3,688.4,228.4L688.4,228.4z"/>
		<path fill="#939393" d="M674.8,228.1c-0.2,0-0.4,0.1-0.4,0.2c0,0.1,0.2,0.3,0.4,0.3h0.9c-0.1-0.1-0.3-0.1-0.3-0.2
			c0-0.1,0.2-0.2,0.4-0.2L674.8,228.1z"/>
		<path fill="#939393" d="M687.9,228.2c0.2,0,0.4,0.1,0.4,0.3c0,0.1-0.2,0.2-0.4,0.2H687c0.1,0,0.3-0.1,0.3-0.2
			c0-0.1-0.2-0.3-0.4-0.3H687.9z"/>
	</g>
	<g>
		<path fill="#939393" d="M688.4,225.4c0,0.1-0.2,0.2-0.4,0.2l-13.2-0.1c-0.2,0-0.4-0.1-0.4-0.3l0,0c0-0.1,0.2-0.2,0.4-0.2l13.2,0.1
			C688.2,225.2,688.4,225.3,688.4,225.4L688.4,225.4z"/>
		<path fill="#939393" d="M674.9,224.9c-0.2,0-0.4,0.1-0.4,0.2c0,0.1,0.2,0.3,0.4,0.3h0.9c-0.1-0.1-0.3-0.1-0.3-0.2
			c0-0.1,0.2-0.2,0.4-0.2L674.9,224.9z"/>
		<path fill="#939393" d="M688,225.2c0.2,0,0.4,0.1,0.4,0.3c0,0.1-0.2,0.2-0.4,0.2h-0.9c0.1,0,0.3-0.1,0.3-0.2
			c0-0.1-0.2-0.3-0.4-0.3H688z"/>
	</g>
	<g>
		<path fill="#939393" d="M688.4,221.8c0,0.1-0.2,0.2-0.4,0.2l-13.2-0.1c-0.2,0-0.4-0.1-0.4-0.3l0,0c0-0.1,0.2-0.2,0.4-0.2l13.2,0.1
			C688.2,221.6,688.4,221.7,688.4,221.8L688.4,221.8z"/>
		<path fill="#939393" d="M674.9,221.3c-0.2,0-0.4,0.1-0.4,0.2c0,0.1,0.2,0.3,0.4,0.3h0.9c-0.1-0.1-0.3-0.1-0.3-0.2
			c0-0.1,0.2-0.2,0.4-0.2L674.9,221.3z"/>
		<path fill="#939393" d="M688,221.6c0.2,0,0.4,0.1,0.4,0.3c0,0.1-0.2,0.2-0.4,0.2h-0.9c0.1,0,0.3-0.1,0.3-0.2
			c0-0.1-0.2-0.3-0.4-0.3H688z"/>
	</g>
</g>
<g>
	<circle fill="#CCCACA" cx="682.6" cy="150.1" r="0.6"/>
	<circle fill="#CCCACA" cx="682.6" cy="166.8" r="0.6"/>
	<circle fill="#CCCACA" cx="682.4" cy="197.3" r="0.6"/>
	<circle fill="#CCCACA" cx="679.2" cy="215" r="0.6"/>
	<circle fill="#CCCACA" cx="685.1" cy="214.8" r="0.6"/>
	<circle fill="#CCCACA" cx="682.1" cy="233.3" r="0.6"/>
	<circle fill="#CCCACA" cx="682.3" cy="226.9" r="0.6"/>
	<circle fill="#CCCACA" cx="682.2" cy="240.5" r="0.6"/>
</g>
<path fill="#E0DCDC" d="M463.9,179.1c0.9,0.5,1.4,2.2,0.3,2.9c-0.5,0.3-1.1,0.3-1.7,0.4c-0.7,0.1-1.4,0.3-2,0.4
	c-3.3,0.6-6.7,0.9-10,1.2c-7.9,0.5-16,0.1-23.9-1c-2.9-0.4-5.7-0.9-8.5-1.7c-0.7-0.2-2.6-0.4-2.6-1.4c-0.1-1,1.5-1.5,2.4-1.9
	c6.1-2.6,13.1-3.6,19.6-3.8c5.1-0.1,10.3,0.3,15.3,1.2C456.5,176.3,460.4,177.2,463.9,179.1z"/>
<path fill="#E0DCDC" d="M395.4,180.3c0.9,0.7,1.1,2.5-0.3,2.7c-0.5,0.1-1.2,0.1-1.8,0.1c-0.7,0-1.4,0-2.1,0
	c-3.3-0.1-6.7-0.4-10.1-0.9c-8.2-1.1-16.1-2.9-24-5.3c-3.2-0.9-6.2-2-9.3-3.3c-1.2-0.4-2.3-0.9-3.5-1.4c-0.7-0.3-2.5-0.9-2.2-1.9
	c0.3-0.9,2-1,2.9-1.1c1.3-0.2,2.6-0.3,3.9-0.4c3.5-0.3,6.9-0.2,10.3,0.1c7.2,0.5,14.2,2,20.9,4.3
	C385.5,174.9,390.8,176.9,395.4,180.3z"/>
</svg>
