<svg version="1.1" id="Layer_1" xmlns="http://www.w3.org/2000/svg" xmlns:xlink="http://www.w3.org/1999/xlink" x="0px" y="0px"
	 viewBox="0 0 427.1 75.1" enable-background="new 0 0 427.1 75.1" xml:space="preserve">
<path fill="#F4EBEA" d="M36,30.2L21.1,56.4h-6.9L0,5.5h6.7l11.8,42.5l13.9-24.4h7.2l13.9,24.4L65.4,5.5h6.7L57.9,56.4H51L36,30.2z"
	/>
<path fill="#F4EBEA" d="M108.4,38.8v17.6h-6.1V38.8c0-5.4-4.3-9.8-9.6-9.8c-5.3,0-9.6,4.4-9.6,9.8v17.6h-6.1V4H83v22.9
	c2.8-2.1,6.1-3.8,9.6-3.8c4.2,0,8.2,1.6,11.2,4.6C106.8,30.6,108.4,34.5,108.4,38.8z"/>
<path fill="#F4EBEA" d="M145.1,41.6h-25.2v0.1c0.7,5.4,4.8,9.5,9.5,9.6c2.9-0.1,5.9-1.4,8-3.4l5.1,3.1c-1.3,1.4-2.7,2.6-4.4,3.6
	c-2.5,1.5-5.6,2.3-8.6,2.4c-4.3,0-8.2-1.8-11.1-5c-2.6-2.8-4.1-6.4-4.4-10.3c-0.1-0.5-0.1-1-0.1-1.5c0-1.3,0.1-2.6,0.4-3.9
	c0.6-3,2.1-5.7,4.1-7.9c2.9-3.1,6.9-4.9,11.1-4.9c4.3,0,8.2,1.8,11.1,4.9c2,2.2,3.5,4.9,4.1,7.9C145.3,39.3,145.2,40.9,145.1,41.6z
	 M138.7,36.4l-0.1-0.1c-1.4-4.2-5.1-7.1-9.1-7.1c-3.9,0-7.6,2.9-9.1,7.1l-0.1,0.1H138.7z"/>
<path fill="#F4EBEA" d="M157.6,27c2.1-2.3,8.1-4.1,11.9-4.1l-1.5,6.1c-5.7,0-10.4,4.4-10.4,9.9v17.4h-6.1V23.7h6.1V27z"/>
<path fill="#F4EBEA" d="M202.5,41.6h-25.2v0.1c0.7,5.4,4.8,9.5,9.5,9.6c2.9-0.1,5.9-1.4,8-3.4l5.1,3.1c-1.3,1.4-2.7,2.6-4.4,3.6
	c-2.5,1.5-5.6,2.3-8.6,2.4c-4.3,0-8.2-1.8-11.1-5c-2.6-2.8-4.1-6.4-4.4-10.3c-0.1-0.5-0.1-1-0.1-1.5c0-1.3,0.1-2.6,0.4-3.9
	c0.6-3,2.1-5.7,4.1-7.9c2.9-3.1,6.9-4.9,11.1-4.9c4.3,0,8.2,1.8,11.1,4.9c2,2.2,3.5,4.9,4.1,7.9C202.6,39.3,202.6,40.9,202.5,41.6z
	 M196.1,36.4l-0.1-0.1c-1.4-4.2-5.1-7.1-9.1-7.1c-3.9,0-7.6,2.9-9.1,7.1l-0.1,0.1H196.1z"/>
<path fill="#F4EBEA" d="M216.8,11.8h-13.4V5.5h33.3v6.3h-13.4v44.6h-6.4V11.8z"/>
<path fill="#F4EBEA" d="M290.5,5.5v50.8c0,5.1-1.9,9.8-5.5,13.4c-3.6,3.6-8.3,5.4-13.4,5.4c-4.9,0-9.6-1.8-13.1-5.2l-0.1-0.1
	l5.3-3.9l0.1,0.1c2.2,1.9,5,2.9,7.9,2.9c6.9,0,12.5-5.7,12.5-12.6V11.8h-13.3V5.5H290.5z"/>
<path fill="#F4EBEA" d="M409.8,41.4c0-11,6.4-20.4,7.1-21.5c1.9-2.8,2.1-4.6,1.6-6.1c-0.4-1.6-1.4-2.9-2.8-3.6
	c-0.9-0.5-1.9-0.9-3-0.9c-0.5,0-1.1,0.1-1.6,0.2c-1.6,0.4-2.9,1.5-3.6,2.9c-0.4,0.9-0.7,2-0.7,3.1h-6.4c0-2.1,0.6-4.4,1.6-6.2
	c1.6-2.8,4.2-4.8,7.4-5.6c1.1-0.3,2.1-0.4,3.2-0.4c2.1,0,4.2,0.5,6.1,1.5c2.8,1.6,4.9,4.3,5.7,7.5c0.9,3.1,0.4,5.5-0.9,7.9
	c-1,1.8-7.6,10.4-7.6,21.4H409.8z"/>
<path fill="#F4EBEA" d="M215.3,0"/>
<g>
	<path fill="#F4EBEA" d="M325.9,23h6.2v33h-6.2v-3.8c-3.1,2.6-7,4.5-11.1,4.5c-4.6,0-8.9-1.7-12.2-5c-3.2-3.3-5-7.6-5-12.2
		s1.8-8.9,5-12.2c3.3-3.2,7.6-5,12.2-5c4.1,0,8,1.9,11.1,4.5V23z M325.9,39.5c0-6.1-5-11.2-11.1-11.2c-6.1,0-11.1,5-11.1,11.2
		s5,11.2,11.1,11.2C321,50.6,325.9,45.6,325.9,39.5z"/>
	<path fill="#F4EBEA" d="M397.7,38.2V56h-6.2V38.2c0-5.4-4.4-9.9-9.7-9.9c-5.4,0-9.8,4.5-9.8,9.9V56h-6.2V38.2
		c0-5.4-4.3-9.9-9.7-9.9c-5.3,0-9.7,4.5-9.7,9.9V56h-6.2V23h6.2v3.2c2.8-2.2,6.2-3.8,9.7-3.8c4.2,0,8.3,1.9,11.3,4.9
		c0.6,0.6,1.1,1.2,1.5,1.8c0.5-0.6,1-1.2,1.6-1.8c3-3,7.1-4.9,11.3-4.9c4.2,0,8.2,1.6,11.2,4.6S397.7,33.9,397.7,38.2z"/>
</g>
<path fill="#F4EBEA" d="M418.4,51.6c0,2.7-2.2,4.9-4.9,4.9c-2.7,0-4.9-2.2-4.9-4.9c0-2.7,2.2-4.9,4.9-4.9
	C416.2,46.7,418.4,48.9,418.4,51.6z"/>
</svg>
